<svg width="88" height="40" viewBox="0 0 88 40" fill="none" xmlns="http://www.w3.org/2000/svg">
<rect width="88" height="40" rx="20" fill="white"/>
<path d="M44.233 26V15.8182H47.6733C48.4721 15.8182 49.125 15.9624 49.6321 16.2507C50.1425 16.5357 50.5204 16.9219 50.7656 17.4091C51.0109 17.8963 51.1335 18.4399 51.1335 19.0398C51.1335 19.6397 51.0109 20.1849 50.7656 20.6754C50.5237 21.166 50.1491 21.5571 49.642 21.8487C49.1349 22.1371 48.4853 22.2812 47.6932 22.2812H45.2273V21.1875H47.6534C48.2003 21.1875 48.6394 21.093 48.9709 20.9041C49.3023 20.7152 49.5426 20.46 49.6918 20.1385C49.8442 19.8137 49.9205 19.4474 49.9205 19.0398C49.9205 18.6321 49.8442 18.2675 49.6918 17.946C49.5426 17.6245 49.3007 17.3726 48.9659 17.1903C48.6312 17.0047 48.187 16.9119 47.6335 16.9119H45.4659V26H44.233ZM56.0803 26.1591C55.3445 26.1591 54.7098 25.9967 54.1761 25.6719C53.6458 25.3438 53.2365 24.8864 52.9482 24.2997C52.6631 23.7098 52.5206 23.0237 52.5206 22.2415C52.5206 21.4593 52.6631 20.7699 52.9482 20.1733C53.2365 19.5734 53.6375 19.1061 54.1513 18.7713C54.6683 18.4332 55.2715 18.2642 55.9609 18.2642C56.3587 18.2642 56.7514 18.3305 57.1392 18.4631C57.527 18.5956 57.88 18.8111 58.1982 19.1094C58.5163 19.4044 58.7699 19.7955 58.9588 20.2827C59.1477 20.7699 59.2422 21.3698 59.2422 22.0824V22.5795H53.3558V21.5653H58.049C58.049 21.1345 57.9628 20.75 57.7905 20.4119C57.6214 20.0739 57.3795 19.8071 57.0646 19.6115C56.7531 19.416 56.3852 19.3182 55.9609 19.3182C55.4936 19.3182 55.0893 19.4342 54.7479 19.6662C54.4098 19.8949 54.1496 20.1932 53.9673 20.5611C53.785 20.929 53.6939 21.3234 53.6939 21.7443V22.4205C53.6939 22.9972 53.7933 23.486 53.9922 23.8871C54.1944 24.2848 54.4744 24.5881 54.8324 24.7969C55.1903 25.0024 55.6063 25.1051 56.0803 25.1051C56.3885 25.1051 56.6669 25.062 56.9155 24.9759C57.1674 24.8864 57.3845 24.7538 57.5668 24.5781C57.7491 24.3991 57.8899 24.1771 57.9893 23.9119L59.1229 24.2301C59.0036 24.6146 58.803 24.9527 58.5213 25.2443C58.2396 25.5327 57.8916 25.758 57.4773 25.9205C57.063 26.0795 56.5973 26.1591 56.0803 26.1591ZM64.348 18.3636V19.358H60.3906V18.3636H64.348ZM61.544 16.5341H62.7173V23.8125C62.7173 24.1439 62.7654 24.3925 62.8615 24.5582C62.9609 24.7206 63.0869 24.83 63.2393 24.8864C63.3951 24.9394 63.5592 24.9659 63.7315 24.9659C63.8608 24.9659 63.9669 24.9593 64.0497 24.946C64.1326 24.9295 64.1989 24.9162 64.2486 24.9062L64.4872 25.9602C64.4077 25.9901 64.2966 26.0199 64.1541 26.0497C64.0116 26.0829 63.831 26.0994 63.6122 26.0994C63.2808 26.0994 62.956 26.0282 62.6378 25.8857C62.3229 25.7431 62.0611 25.526 61.8523 25.2344C61.6468 24.9427 61.544 24.5748 61.544 24.1307V16.5341ZM71.3853 20.0739L70.3313 20.3722C70.265 20.1965 70.1673 20.0258 70.038 19.8601C69.9121 19.6911 69.7397 19.5518 69.521 19.4425C69.3022 19.3331 69.0221 19.2784 68.6808 19.2784C68.2134 19.2784 67.824 19.3861 67.5124 19.6016C67.2042 19.8137 67.0501 20.0838 67.0501 20.4119C67.0501 20.7036 67.1561 20.9339 67.3683 21.103C67.5804 21.272 67.9118 21.4129 68.3626 21.5256L69.4961 21.804C70.1789 21.9697 70.6876 22.2232 71.0224 22.5646C71.3571 22.9027 71.5245 23.3385 71.5245 23.8722C71.5245 24.3097 71.3986 24.7008 71.1467 25.0455C70.8981 25.3902 70.5501 25.6619 70.1026 25.8608C69.6552 26.0597 69.1348 26.1591 68.5415 26.1591C67.7627 26.1591 67.118 25.9901 66.6076 25.652C66.0972 25.3139 65.774 24.8201 65.6381 24.1705L66.7518 23.892C66.8578 24.303 67.0584 24.6113 67.3533 24.8168C67.6516 25.0223 68.0411 25.125 68.5217 25.125C69.0685 25.125 69.5027 25.009 69.8242 24.777C70.149 24.5417 70.3114 24.2599 70.3114 23.9318C70.3114 23.6667 70.2186 23.4446 70.033 23.2656C69.8474 23.0833 69.5624 22.9474 69.1779 22.858L67.9052 22.5597C67.2058 22.3939 66.6921 22.1371 66.364 21.7891C66.0392 21.4377 65.8768 20.9986 65.8768 20.4716C65.8768 20.0407 65.9978 19.6596 66.2397 19.3281C66.485 18.9967 66.8181 18.7365 67.239 18.5476C67.6632 18.3587 68.1438 18.2642 68.6808 18.2642C69.4364 18.2642 70.0297 18.4299 70.4606 18.7614C70.8948 19.0928 71.203 19.5303 71.3853 20.0739Z" fill="black"/>
<path d="M28.2436 20.5582C27.4198 19.2731 26.0168 18.5057 24.4904 18.5057C22.9641 18.5057 21.5611 19.2731 20.7375 20.5582L18.7525 23.6548C18.4231 24.1685 18.2712 24.7621 18.3129 25.371C18.3547 25.9799 18.5864 26.547 18.9829 27.0113C19.3797 27.4751 19.9041 27.7922 20.4992 27.9282C21.0943 28.0643 21.7044 28.0061 22.2634 27.7605L22.3008 27.7438C23.7073 27.138 25.3145 27.1435 26.7174 27.7605C27.0793 27.9196 27.4627 28 27.8495 28C28.0599 28 28.2715 27.9761 28.4811 27.9284C29.0763 27.7925 29.6006 27.4754 29.9975 27.0114C30.3942 26.5476 30.6261 25.9804 30.668 25.3712C30.7099 24.7621 30.5579 24.1687 30.2286 23.6547L28.2436 20.5582Z" fill="#FF5069"/>
<path d="M19.2858 20.554C19.8763 20.3272 20.3249 19.8513 20.549 19.214C20.7622 18.6076 20.7448 17.9229 20.4997 17.286C20.2544 16.6495 19.8083 16.1299 19.2435 15.8228C18.6501 15.5003 17.9983 15.4478 17.4087 15.675C16.2227 16.131 15.6784 17.5968 16.1956 18.9431C16.6087 20.0146 17.5723 20.691 18.5465 20.691C18.7953 20.691 19.0447 20.6469 19.2858 20.554Z" fill="#FF5069"/>
<path d="M23.1388 18.1281C24.6215 18.1281 25.8279 16.7537 25.8279 15.0644C25.8279 13.3746 24.6215 12 23.1388 12C21.6562 12 20.45 13.3746 20.45 15.0644C20.45 16.7537 21.6562 18.1281 23.1388 18.1281Z" fill="#FF5069"/>
<path d="M27.7802 18.8806H27.7803C28.0084 18.9563 28.2411 18.9924 28.4728 18.9924C29.5542 18.9924 30.608 18.2054 31.0101 16.9958C31.2417 16.2996 31.2264 15.5634 30.9672 14.923C30.696 14.2526 30.1933 13.7659 29.5516 13.5527C28.9099 13.3394 28.2158 13.4284 27.5972 13.803C27.0063 14.1608 26.5535 14.7414 26.3222 15.4377C25.834 16.9065 26.4881 18.4509 27.7802 18.8806Z" fill="#FF5069"/>
<path d="M33.4446 18.5232L33.4442 18.5228C32.4216 17.7674 30.8924 18.0948 30.0349 19.253C29.1783 20.4117 29.3123 21.9694 30.3333 22.7253C30.7056 23.0012 31.1456 23.133 31.5959 23.133C32.3807 23.133 33.1972 22.7325 33.7431 21.9958C34.5995 20.8371 34.4657 19.2794 33.4446 18.5232Z" fill="#FF5069"/>
</svg>
