<svg width="102" height="40" viewBox="0 0 102 40" fill="none" xmlns="http://www.w3.org/2000/svg">
<rect width="102" height="40" rx="20" fill="#FF5069"/>
<path d="M49.8011 18.3636C49.7415 17.8598 49.4995 17.4688 49.0753 17.1903C48.651 16.9119 48.1307 16.7727 47.5142 16.7727C47.0634 16.7727 46.669 16.8456 46.331 16.9915C45.9962 17.1373 45.7344 17.3378 45.5455 17.593C45.3598 17.8482 45.267 18.1383 45.267 18.4631C45.267 18.7348 45.3317 18.9685 45.4609 19.1641C45.5935 19.3563 45.7625 19.517 45.968 19.6463C46.1735 19.7723 46.389 19.8767 46.6143 19.9595C46.8397 20.0391 47.0469 20.1037 47.2358 20.1534L48.2699 20.4318C48.535 20.5014 48.83 20.5975 49.1548 20.7202C49.483 20.8428 49.7962 21.0102 50.0945 21.2223C50.3961 21.4311 50.6446 21.6996 50.8402 22.0277C51.0357 22.3558 51.1335 22.7585 51.1335 23.2358C51.1335 23.786 50.9893 24.2831 50.701 24.7273C50.416 25.1714 49.9983 25.5244 49.4482 25.7862C48.9013 26.0481 48.2367 26.179 47.4545 26.179C46.7254 26.179 46.094 26.0613 45.5604 25.826C45.0301 25.5907 44.6125 25.2625 44.3075 24.8416C44.0059 24.4207 43.8352 23.9318 43.7955 23.375H45.0682C45.1013 23.7595 45.2306 24.0777 45.456 24.3295C45.6847 24.5781 45.973 24.7637 46.321 24.8864C46.6723 25.0057 47.0502 25.0653 47.4545 25.0653C47.9252 25.0653 48.3478 24.9891 48.7223 24.8366C49.0968 24.6809 49.3935 24.4654 49.6122 24.1903C49.831 23.9119 49.9403 23.5871 49.9403 23.2159C49.9403 22.8778 49.8459 22.6027 49.657 22.3906C49.468 22.1785 49.2195 22.0062 48.9112 21.8736C48.603 21.741 48.2699 21.625 47.9119 21.5256L46.6591 21.1676C45.8636 20.9389 45.2339 20.6125 44.7699 20.1882C44.3059 19.764 44.0739 19.2088 44.0739 18.5227C44.0739 17.9527 44.228 17.4555 44.5362 17.0312C44.8478 16.6037 45.2654 16.2723 45.7891 16.0369C46.3161 15.7983 46.9044 15.679 47.554 15.679C48.2102 15.679 48.7936 15.7966 49.304 16.032C49.8144 16.264 50.2188 16.5821 50.517 16.9865C50.8187 17.3909 50.9777 17.8499 50.9943 18.3636H49.8011ZM53.0016 28.8636V18.3636H54.1351V19.5767H54.2743C54.3605 19.4441 54.4798 19.2751 54.6323 19.0696C54.7881 18.8608 55.0101 18.6752 55.2985 18.5128C55.5901 18.3471 55.9846 18.2642 56.4817 18.2642C57.1247 18.2642 57.6915 18.425 58.182 18.7464C58.6725 19.0679 59.0553 19.5237 59.3304 20.1136C59.6055 20.7036 59.7431 21.3996 59.7431 22.2017C59.7431 23.0104 59.6055 23.7114 59.3304 24.3047C59.0553 24.8946 58.6742 25.352 58.187 25.6768C57.6998 25.9983 57.138 26.1591 56.5016 26.1591C56.0111 26.1591 55.6183 26.0779 55.3233 25.9155C55.0283 25.7498 54.8013 25.5625 54.6422 25.3537C54.4831 25.1416 54.3605 24.9659 54.2743 24.8267H54.1749V28.8636H53.0016ZM54.155 22.1818C54.155 22.7585 54.2395 23.2673 54.4086 23.7081C54.5776 24.1456 54.8245 24.4886 55.1493 24.7372C55.4741 24.9825 55.8719 25.1051 56.3425 25.1051C56.833 25.1051 57.2424 24.9759 57.5705 24.7173C57.9019 24.4555 58.1505 24.1042 58.3162 23.6634C58.4853 23.2192 58.5698 22.7254 58.5698 22.1818C58.5698 21.6449 58.4869 21.161 58.3212 20.7301C58.1588 20.2959 57.9119 19.9529 57.5804 19.701C57.2523 19.4458 56.8397 19.3182 56.3425 19.3182C55.8652 19.3182 55.4642 19.4392 55.1394 19.6811C54.8146 19.9197 54.5693 20.2545 54.4036 20.6854C54.2379 21.1129 54.155 21.6117 54.155 22.1818ZM64.6351 26.1591C63.9457 26.1591 63.3409 25.995 62.8205 25.6669C62.3034 25.3388 61.8991 24.8797 61.6074 24.2898C61.3191 23.6998 61.1749 23.0104 61.1749 22.2216C61.1749 21.4261 61.3191 20.7318 61.6074 20.1385C61.8991 19.5452 62.3034 19.0845 62.8205 18.7564C63.3409 18.4283 63.9457 18.2642 64.6351 18.2642C65.3245 18.2642 65.9277 18.4283 66.4448 18.7564C66.9651 19.0845 67.3695 19.5452 67.6578 20.1385C67.9495 20.7318 68.0953 21.4261 68.0953 22.2216C68.0953 23.0104 67.9495 23.6998 67.6578 24.2898C67.3695 24.8797 66.9651 25.3388 66.4448 25.6669C65.9277 25.995 65.3245 26.1591 64.6351 26.1591ZM64.6351 25.1051C65.1588 25.1051 65.5897 24.9709 65.9277 24.7024C66.2658 24.4339 66.516 24.081 66.6784 23.6435C66.8409 23.206 66.9221 22.732 66.9221 22.2216C66.9221 21.7112 66.8409 21.2356 66.6784 20.7947C66.516 20.3539 66.2658 19.9976 65.9277 19.7259C65.5897 19.4541 65.1588 19.3182 64.6351 19.3182C64.1114 19.3182 63.6806 19.4541 63.3425 19.7259C63.0044 19.9976 62.7542 20.3539 62.5918 20.7947C62.4294 21.2356 62.3482 21.7112 62.3482 22.2216C62.3482 22.732 62.4294 23.206 62.5918 23.6435C62.7542 24.081 63.0044 24.4339 63.3425 24.7024C63.6806 24.9709 64.1114 25.1051 64.6351 25.1051ZM69.8864 26V18.3636H71.0199V19.517H71.0994C71.2386 19.1392 71.4905 18.8326 71.8551 18.5973C72.2197 18.362 72.6307 18.2443 73.0881 18.2443C73.1742 18.2443 73.282 18.246 73.4112 18.2493C73.5405 18.2526 73.6383 18.2576 73.7045 18.2642V19.4574C73.6648 19.4474 73.5736 19.4325 73.4311 19.4126C73.2919 19.3894 73.1444 19.3778 72.9886 19.3778C72.6174 19.3778 72.286 19.4557 71.9943 19.6115C71.706 19.764 71.4773 19.9761 71.3082 20.2479C71.1425 20.5163 71.0597 20.8229 71.0597 21.1676V26H69.8864ZM78.8949 18.3636V19.358H74.9375V18.3636H78.8949ZM76.0909 16.5341H77.2642V23.8125C77.2642 24.1439 77.3123 24.3925 77.4084 24.5582C77.5078 24.7206 77.6338 24.83 77.7862 24.8864C77.942 24.9394 78.1061 24.9659 78.2784 24.9659C78.4077 24.9659 78.5137 24.9593 78.5966 24.946C78.6795 24.9295 78.7457 24.9162 78.7955 24.9062L79.0341 25.9602C78.9545 25.9901 78.8435 26.0199 78.701 26.0497C78.5585 26.0829 78.3778 26.0994 78.1591 26.0994C77.8277 26.0994 77.5028 26.0282 77.1847 25.8857C76.8698 25.7431 76.608 25.526 76.3991 25.2344C76.1937 24.9427 76.0909 24.5748 76.0909 24.1307V16.5341ZM85.9322 20.0739L84.8782 20.3722C84.8119 20.1965 84.7141 20.0258 84.5849 19.8601C84.4589 19.6911 84.2866 19.5518 84.0678 19.4425C83.8491 19.3331 83.569 19.2784 83.2276 19.2784C82.7603 19.2784 82.3709 19.3861 82.0593 19.6016C81.7511 19.8137 81.5969 20.0838 81.5969 20.4119C81.5969 20.7036 81.703 20.9339 81.9151 21.103C82.1272 21.272 82.4587 21.4129 82.9094 21.5256L84.043 21.804C84.7257 21.9697 85.2345 22.2232 85.5692 22.5646C85.904 22.9027 86.0714 23.3385 86.0714 23.8722C86.0714 24.3097 85.9454 24.7008 85.6935 25.0455C85.445 25.3902 85.0969 25.6619 84.6495 25.8608C84.2021 26.0597 83.6817 26.1591 83.0884 26.1591C82.3095 26.1591 81.6649 25.9901 81.1545 25.652C80.6441 25.3139 80.3209 24.8201 80.185 24.1705L81.2987 23.892C81.4047 24.303 81.6052 24.6113 81.9002 24.8168C82.1985 25.0223 82.5879 25.125 83.0685 25.125C83.6154 25.125 84.0496 25.009 84.3711 24.777C84.6959 24.5417 84.8583 24.2599 84.8583 23.9318C84.8583 23.6667 84.7655 23.4446 84.5799 23.2656C84.3943 23.0833 84.1093 22.9474 83.7248 22.858L82.4521 22.5597C81.7527 22.3939 81.239 22.1371 80.9109 21.7891C80.5861 21.4377 80.4237 20.9986 80.4237 20.4716C80.4237 20.0407 80.5446 19.6596 80.7866 19.3281C81.0318 18.9967 81.3649 18.7365 81.7859 18.5476C82.2101 18.3587 82.6907 18.2642 83.2276 18.2642C83.9833 18.2642 84.5766 18.4299 85.0075 18.7614C85.4416 19.0928 85.7499 19.5303 85.9322 20.0739Z" fill="white"/>
<path d="M25.3289 21.2294L26.9263 22.1519C25.9727 24.2642 25.8724 26.6634 26.6465 28.8479C26.1034 28.9495 25.552 29.0004 24.9995 29C23.7243 29.0021 22.4633 28.732 21.3007 28.208L25.3289 21.2294ZM28.4941 23.0582L32.3045 25.2578C31.3119 26.6355 29.951 27.7055 28.378 28.3448C27.7789 26.727 27.7814 24.9478 28.3852 23.3318L28.4941 23.0582ZM22.1737 19.4078L23.7711 20.3294L19.7429 27.3044C18.2529 26.2311 17.1257 24.7288 16.5121 22.9979C18.6867 22.5963 20.6366 21.4064 21.9883 19.6562L22.1737 19.4078ZM33.9145 18.7544C33.9712 19.1621 34 19.5779 34 20C34.002 21.2753 33.732 22.5364 33.208 23.699L29.3958 21.4985C30.4691 20.0818 32.0293 19.1131 33.775 18.7796L33.9145 18.7544ZM16.7929 16.3019L20.6042 18.5024C19.5012 19.9581 17.8856 20.9394 16.0855 21.2474C16.0285 20.834 15.9999 20.4172 16 20C16 18.6815 16.2835 17.4296 16.792 16.301L16.7929 16.3019ZM30.2571 12.6947C31.7471 13.768 32.8742 15.2704 33.4879 17.0012C31.313 17.4036 29.3628 18.5941 28.0108 20.3447L27.8263 20.5931L26.2289 19.6706L30.2571 12.6956V12.6947ZM24.9995 11C26.318 11 27.5698 11.2835 28.6984 11.792L24.6702 18.7706L23.0727 17.849C24.0269 15.7362 24.1271 13.3363 23.3526 11.1512C23.8958 11.05 24.4471 10.9993 24.9995 11ZM21.622 11.657C22.2202 13.275 22.217 15.0541 21.613 16.67L21.505 16.9427L17.6946 14.7422C18.6488 13.4183 19.9438 12.3776 21.442 11.7308L21.622 11.657Z" fill="white"/>
</svg>
