<svg width="112" height="40" viewBox="0 0 112 40" fill="none" xmlns="http://www.w3.org/2000/svg">
<rect width="112" height="40" rx="20" fill="#FF5069"/>
<path d="M44.233 26V15.8182H47.6733C48.4721 15.8182 49.125 15.9624 49.6321 16.2507C50.1425 16.5357 50.5204 16.9219 50.7656 17.4091C51.0109 17.8963 51.1335 18.4399 51.1335 19.0398C51.1335 19.6397 51.0109 20.1849 50.7656 20.6754C50.5237 21.166 50.1491 21.5571 49.642 21.8487C49.1349 22.1371 48.4853 22.2812 47.6932 22.2812H45.2273V21.1875H47.6534C48.2003 21.1875 48.6394 21.093 48.9709 20.9041C49.3023 20.7152 49.5426 20.46 49.6918 20.1385C49.8442 19.8137 49.9205 19.4474 49.9205 19.0398C49.9205 18.6321 49.8442 18.2675 49.6918 17.946C49.5426 17.6245 49.3007 17.3726 48.9659 17.1903C48.6312 17.0047 48.187 16.9119 47.6335 16.9119H45.4659V26H44.233ZM55.2077 26.179C54.7238 26.179 54.2847 26.0878 53.8903 25.9055C53.4959 25.7199 53.1826 25.4531 52.9506 25.1051C52.7186 24.7538 52.6026 24.3295 52.6026 23.8324C52.6026 23.3949 52.6888 23.0402 52.8612 22.7685C53.0335 22.4934 53.2638 22.2779 53.5522 22.1222C53.8406 21.9664 54.1587 21.8504 54.5067 21.7741C54.8581 21.6946 55.2111 21.6316 55.5657 21.5852C56.0297 21.5256 56.4059 21.4808 56.6942 21.451C56.9859 21.4179 57.198 21.3632 57.3306 21.2869C57.4665 21.2107 57.5344 21.0781 57.5344 20.8892V20.8494C57.5344 20.3589 57.4002 19.9777 57.1317 19.706C56.8666 19.4342 56.4639 19.2983 55.9237 19.2983C55.3635 19.2983 54.9244 19.4209 54.6062 19.6662C54.288 19.9115 54.0643 20.1733 53.935 20.4517L52.8214 20.054C53.0202 19.59 53.2854 19.2287 53.6168 18.9702C53.9516 18.7083 54.3162 18.526 54.7106 18.4233C55.1083 18.3172 55.4994 18.2642 55.8839 18.2642C56.1291 18.2642 56.4109 18.294 56.729 18.3537C57.0505 18.41 57.3604 18.5277 57.6587 18.7067C57.9603 18.8857 58.2106 19.1558 58.4094 19.517C58.6083 19.8783 58.7077 20.3622 58.7077 20.9688V26H57.5344V24.9659H57.4748C57.3952 25.1316 57.2627 25.3089 57.0771 25.4979C56.8915 25.6868 56.6445 25.8475 56.3363 25.9801C56.0281 26.1127 55.6519 26.179 55.2077 26.179ZM55.3867 25.125C55.8507 25.125 56.2418 25.0339 56.56 24.8516C56.8815 24.6693 57.1235 24.4339 57.2859 24.1456C57.4516 23.8572 57.5344 23.554 57.5344 23.2358V22.1619C57.4847 22.2216 57.3754 22.2763 57.2063 22.326C57.0406 22.3724 56.8484 22.4138 56.6296 22.4503C56.4142 22.4834 56.2037 22.5133 55.9982 22.5398C55.796 22.563 55.632 22.5829 55.506 22.5994C55.2011 22.6392 54.9161 22.7038 54.6509 22.7933C54.3891 22.8795 54.177 23.0104 54.0146 23.1861C53.8555 23.3584 53.7759 23.5937 53.7759 23.892C53.7759 24.2997 53.9267 24.608 54.2283 24.8168C54.5333 25.0223 54.9194 25.125 55.3867 25.125ZM60.8493 26V18.3636H62.0225V26H60.8493ZM61.4458 17.0909C61.2172 17.0909 61.0199 17.013 60.8542 16.8572C60.6918 16.7015 60.6106 16.5142 60.6106 16.2955C60.6106 16.0767 60.6918 15.8894 60.8542 15.7337C61.0199 15.5779 61.2172 15.5 61.4458 15.5C61.6745 15.5 61.8701 15.5779 62.0325 15.7337C62.1982 15.8894 62.2811 16.0767 62.2811 16.2955C62.2811 16.5142 62.1982 16.7015 62.0325 16.8572C61.8701 17.013 61.6745 17.0909 61.4458 17.0909ZM65.3448 21.4062V26H64.1715V18.3636H65.305V19.5568H65.4045C65.5835 19.169 65.8552 18.8575 66.2198 18.6222C66.5844 18.3835 67.055 18.2642 67.6317 18.2642C68.1488 18.2642 68.6012 18.3703 68.989 18.5824C69.3768 18.7912 69.6784 19.1094 69.8938 19.5369C70.1093 19.9612 70.217 20.4981 70.217 21.1477V26H69.0437V21.2273C69.0437 20.6274 68.8879 20.16 68.5763 19.8253C68.2648 19.4872 67.8372 19.3182 67.2937 19.3182C66.9192 19.3182 66.5844 19.3994 66.2894 19.5618C65.9978 19.7242 65.7674 19.9612 65.5984 20.2727C65.4293 20.5843 65.3448 20.9621 65.3448 21.4062ZM75.682 18.3636V19.358H71.7246V18.3636H75.682ZM72.878 16.5341H74.0513V23.8125C74.0513 24.1439 74.0994 24.3925 74.1955 24.5582C74.2949 24.7206 74.4209 24.83 74.5733 24.8864C74.7291 24.9394 74.8932 24.9659 75.0655 24.9659C75.1948 24.9659 75.3008 24.9593 75.3837 24.946C75.4666 24.9295 75.5328 24.9162 75.5826 24.9062L75.8212 25.9602C75.7417 25.9901 75.6306 26.0199 75.4881 26.0497C75.3456 26.0829 75.165 26.0994 74.9462 26.0994C74.6148 26.0994 74.29 26.0282 73.9718 25.8857C73.6569 25.7431 73.3951 25.526 73.1863 25.2344C72.9808 24.9427 72.878 24.5748 72.878 24.1307V16.5341ZM77.4469 26V18.3636H78.6202V26H77.4469ZM78.0435 17.0909C77.8148 17.0909 77.6176 17.013 77.4519 16.8572C77.2895 16.7015 77.2083 16.5142 77.2083 16.2955C77.2083 16.0767 77.2895 15.8894 77.4519 15.7337C77.6176 15.5779 77.8148 15.5 78.0435 15.5C78.2722 15.5 78.4677 15.5779 78.6301 15.7337C78.7959 15.8894 78.8787 16.0767 78.8787 16.2955C78.8787 16.5142 78.7959 16.7015 78.6301 16.8572C78.4677 17.013 78.2722 17.0909 78.0435 17.0909ZM81.9425 21.4062V26H80.7692V18.3636H81.9027V19.5568H82.0021C82.1811 19.169 82.4529 18.8575 82.8175 18.6222C83.1821 18.3835 83.6527 18.2642 84.2294 18.2642C84.7464 18.2642 85.1989 18.3703 85.5866 18.5824C85.9744 18.7912 86.276 19.1094 86.4915 19.5369C86.7069 19.9612 86.8146 20.4981 86.8146 21.1477V26H85.6413V21.2273C85.6413 20.6274 85.4856 20.16 85.174 19.8253C84.8625 19.4872 84.4349 19.3182 83.8913 19.3182C83.5168 19.3182 83.1821 19.3994 82.8871 19.5618C82.5954 19.7242 82.3651 19.9612 82.196 20.2727C82.027 20.5843 81.9425 20.9621 81.9425 21.4062ZM92.041 29.0227C91.4743 29.0227 90.987 28.9498 90.5794 28.804C90.1717 28.6615 89.832 28.4725 89.5602 28.2372C89.2917 28.0052 89.0779 27.7566 88.9189 27.4915L89.8535 26.8352C89.9596 26.9744 90.0938 27.1335 90.2562 27.3125C90.4186 27.4948 90.6407 27.6522 90.9224 27.7848C91.2074 27.9207 91.5803 27.9886 92.041 27.9886C92.6575 27.9886 93.1663 27.8395 93.5673 27.5412C93.9683 27.2429 94.1689 26.7756 94.1689 26.1392V24.5881H94.0694C93.9833 24.7273 93.8606 24.8996 93.7015 25.1051C93.5458 25.3073 93.3204 25.4879 93.0254 25.647C92.7337 25.8028 92.3393 25.8807 91.8422 25.8807C91.2257 25.8807 90.6722 25.7348 90.1816 25.4432C89.6944 25.1515 89.3083 24.7273 89.0233 24.1705C88.7415 23.6136 88.6007 22.9375 88.6007 22.142C88.6007 21.3598 88.7382 20.6787 89.0133 20.0987C89.2884 19.5154 89.6712 19.0646 90.1618 18.7464C90.6523 18.425 91.219 18.2642 91.862 18.2642C92.3592 18.2642 92.7536 18.3471 93.0453 18.5128C93.3403 18.6752 93.5656 18.8608 93.7214 19.0696C93.8805 19.2751 94.0031 19.4441 94.0893 19.5767H94.2086V18.3636H95.3422V26.2188C95.3422 26.875 95.193 27.4086 94.8947 27.8196C94.5997 28.2339 94.202 28.5372 93.7015 28.7294C93.2044 28.925 92.6509 29.0227 92.041 29.0227ZM92.0012 24.8267C92.4719 24.8267 92.8696 24.719 93.1944 24.5036C93.5192 24.2881 93.7662 23.9782 93.9352 23.5739C94.1042 23.1695 94.1887 22.6856 94.1887 22.1222C94.1887 21.572 94.1059 21.0864 93.9402 20.6655C93.7744 20.2446 93.5292 19.9148 93.2044 19.6761C92.8796 19.4375 92.4785 19.3182 92.0012 19.3182C91.5041 19.3182 91.0898 19.4441 90.7583 19.696C90.4302 19.9479 90.1833 20.286 90.0176 20.7102C89.8552 21.1345 89.774 21.6051 89.774 22.1222C89.774 22.6525 89.8568 23.1214 90.0225 23.5291C90.1916 23.9335 90.4402 24.2517 90.7683 24.4837C91.0997 24.7124 91.5107 24.8267 92.0012 24.8267Z" fill="white"/>
<path d="M33.6363 13.4752C33.6026 13.3877 33.525 13.3262 33.4341 13.3147C33.3434 13.3033 33.2535 13.3439 33.2002 13.4205C32.8844 13.8753 32.4698 14.0269 31.9897 14.2025C31.6025 14.3442 31.2021 14.4905 30.7694 14.8096C30.1574 15.2607 29.8775 15.8758 30.0171 16.4587L30.0021 16.4784C29.7466 16.0977 29.4685 15.7455 29.1751 15.4311C27.8023 13.96 25.884 13.0756 23.912 13.0047C23.8251 13.0016 23.7368 13 23.6495 13C21.4476 13 19.3399 14.0109 17.8671 15.7734C16.4019 17.5268 15.7525 19.8094 16.0855 22.0358C16.1133 22.2219 16.1481 22.4099 16.1891 22.5947C16.7306 25.0425 18.1137 26.9045 19.9838 27.7033C20.4447 27.9002 20.9097 28 21.3656 28C22.4983 28 23.4876 27.3779 24.08 26.2931C24.3052 25.8803 24.4504 25.4535 24.5117 25.0243C24.5477 24.771 24.5231 24.5179 24.4992 24.2726C24.4745 24.0201 24.4513 23.7815 24.4885 23.5413C24.5738 22.9906 24.9483 22.6618 25.4905 22.6618C25.6447 22.6618 25.8023 22.6879 25.9597 22.7393C25.7754 23.0864 25.6081 23.4177 25.4619 23.7249C25.152 24.3758 24.9382 24.9149 24.8263 25.327C24.7574 25.5811 24.5742 26.2565 25.0209 26.575C25.1628 26.6761 25.3427 26.7118 25.5299 26.676C25.6986 26.6438 26.212 26.5459 27.6707 24.8404C28.0622 24.3828 28.4841 23.8531 28.9251 23.266C30.0571 22.8744 30.9381 21.9 31.1711 20.7803C31.2295 20.5005 31.2538 20.2009 31.2434 19.8898C31.6673 19.2171 32.039 18.5894 32.4131 17.9147C32.4203 17.9017 32.4274 17.8878 32.4344 17.8736C32.9774 17.7209 33.445 17.287 33.7195 16.6801C34.1203 15.7945 34.0907 14.6562 33.6363 13.4752ZM27.5164 17.669C27.32 17.9893 26.9825 18.1805 26.6134 18.1805C26.4129 18.1805 26.2169 18.1223 26.0465 18.0121C25.8055 17.8562 25.638 17.6134 25.5749 17.3282C25.5119 17.0431 25.5606 16.7498 25.7124 16.5023C25.9088 16.182 26.2464 15.9908 26.6155 15.9908C26.816 15.9908 27.012 16.049 27.1824 16.1593C27.4233 16.3151 27.5908 16.5579 27.6539 16.8431C27.7169 17.1282 27.6681 17.4215 27.5164 17.669ZM28.9001 19.6525C29.439 18.837 30.009 18.0264 30.5503 17.3054C30.6381 17.3868 30.7362 17.4663 30.8425 17.542C31.0186 17.6675 31.2028 17.7646 31.391 17.831C30.934 18.6337 30.4425 19.429 29.8475 20.329C28.8699 21.8083 27.8533 23.1825 26.9851 24.1983C26.5002 24.7658 26.0758 25.2038 25.7488 25.4752C25.875 25.0605 26.1162 24.4915 26.4519 23.8172C27.0522 22.6115 27.9217 21.1324 28.9001 19.6525ZM19.4379 19.6455C19.2374 19.6455 19.0413 19.5872 18.8709 19.477C18.63 19.3212 18.4625 19.0784 18.3994 18.7932C18.3363 18.508 18.3852 18.2147 18.537 17.9673C18.7333 17.647 19.0708 17.4558 19.4399 17.4558C19.6405 17.4558 19.8365 17.514 20.0069 17.6243C20.5043 17.946 20.6541 18.6232 20.3411 19.1339C20.1446 19.4542 19.8069 19.6455 19.4379 19.6455ZM18.3204 22.0561C18.5168 21.7358 18.8543 21.5446 19.2235 21.5446C19.4239 21.5446 19.6199 21.6028 19.7904 21.7131C20.0313 21.8689 20.1988 22.1117 20.2619 22.3968C20.325 22.6819 20.2762 22.9752 20.1243 23.2227C19.928 23.5429 19.5904 23.7342 19.2214 23.7342C19.0209 23.7342 18.8248 23.676 18.6543 23.5657C18.4134 23.4099 18.2459 23.1671 18.1829 22.882C18.1199 22.5969 18.1688 22.3035 18.3204 22.0561ZM21.7344 15.5543C21.9307 15.234 22.2683 15.0427 22.6374 15.0427C22.8378 15.0427 23.0339 15.101 23.2043 15.2112C23.7017 15.5328 23.8515 16.2101 23.5384 16.7209C23.342 17.0412 23.0044 17.2324 22.6353 17.2324C22.4348 17.2324 22.2388 17.1742 22.0684 17.0639C21.8275 16.9082 21.6601 16.6654 21.597 16.3802C21.5338 16.095 21.5826 15.8018 21.7344 15.5543Z" fill="white"/>
</svg>
