<svg width="143" height="40" viewBox="0 0 143 40" fill="none" xmlns="http://www.w3.org/2000/svg">
<rect width="143" height="40" rx="20" fill="white"/>
<path d="M44.233 26V15.8182H47.6733C48.4721 15.8182 49.125 15.9624 49.6321 16.2507C50.1425 16.5357 50.5204 16.9219 50.7656 17.4091C51.0109 17.8963 51.1335 18.4399 51.1335 19.0398C51.1335 19.6397 51.0109 20.1849 50.7656 20.6754C50.5237 21.166 50.1491 21.5571 49.642 21.8487C49.1349 22.1371 48.4853 22.2812 47.6932 22.2812H45.2273V21.1875H47.6534C48.2003 21.1875 48.6394 21.093 48.9709 20.9041C49.3023 20.7152 49.5426 20.46 49.6918 20.1385C49.8442 19.8137 49.9205 19.4474 49.9205 19.0398C49.9205 18.6321 49.8442 18.2675 49.6918 17.946C49.5426 17.6245 49.3007 17.3726 48.9659 17.1903C48.6312 17.0047 48.187 16.9119 47.6335 16.9119H45.4659V26H44.233ZM54.1339 21.4062V26H52.9606V15.8182H54.1339V19.5568H54.2333C54.4123 19.1624 54.6808 18.8492 55.0387 18.6172C55.4 18.3819 55.8806 18.2642 56.4805 18.2642C57.0008 18.2642 57.4566 18.3686 57.8477 18.5774C58.2388 18.7829 58.542 19.0994 58.7575 19.527C58.9762 19.9512 59.0856 20.4915 59.0856 21.1477V26H57.9123V21.2273C57.9123 20.6207 57.7549 20.1518 57.44 19.8203C57.1284 19.4856 56.6959 19.3182 56.1424 19.3182C55.7579 19.3182 55.4132 19.3994 55.1083 19.5618C54.8067 19.7242 54.5681 19.9612 54.3924 20.2727C54.2201 20.5843 54.1339 20.9621 54.1339 21.4062ZM64.3343 26.1591C63.6449 26.1591 63.0401 25.995 62.5197 25.6669C62.0027 25.3388 61.5983 24.8797 61.3066 24.2898C61.0183 23.6998 60.8741 23.0104 60.8741 22.2216C60.8741 21.4261 61.0183 20.7318 61.3066 20.1385C61.5983 19.5452 62.0027 19.0845 62.5197 18.7564C63.0401 18.4283 63.6449 18.2642 64.3343 18.2642C65.0237 18.2642 65.627 18.4283 66.144 18.7564C66.6644 19.0845 67.0687 19.5452 67.3571 20.1385C67.6487 20.7318 67.7946 21.4261 67.7946 22.2216C67.7946 23.0104 67.6487 23.6998 67.3571 24.2898C67.0687 24.8797 66.6644 25.3388 66.144 25.6669C65.627 25.995 65.0237 26.1591 64.3343 26.1591ZM64.3343 25.1051C64.858 25.1051 65.2889 24.9709 65.627 24.7024C65.965 24.4339 66.2153 24.081 66.3777 23.6435C66.5401 23.206 66.6213 22.732 66.6213 22.2216C66.6213 21.7112 66.5401 21.2356 66.3777 20.7947C66.2153 20.3539 65.965 19.9976 65.627 19.7259C65.2889 19.4541 64.858 19.3182 64.3343 19.3182C63.8107 19.3182 63.3798 19.4541 63.0417 19.7259C62.7037 19.9976 62.4534 20.3539 62.291 20.7947C62.1286 21.2356 62.0474 21.7112 62.0474 22.2216C62.0474 22.732 62.1286 23.206 62.291 23.6435C62.4534 24.081 62.7037 24.4339 63.0417 24.7024C63.3798 24.9709 63.8107 25.1051 64.3343 25.1051ZM72.9066 18.3636V19.358H68.9492V18.3636H72.9066ZM70.1026 16.5341H71.2759V23.8125C71.2759 24.1439 71.324 24.3925 71.4201 24.5582C71.5195 24.7206 71.6455 24.83 71.7979 24.8864C71.9537 24.9394 72.1178 24.9659 72.2901 24.9659C72.4194 24.9659 72.5255 24.9593 72.6083 24.946C72.6912 24.9295 72.7575 24.9162 72.8072 24.9062L73.0458 25.9602C72.9663 25.9901 72.8552 26.0199 72.7127 26.0497C72.5702 26.0829 72.3896 26.0994 72.1708 26.0994C71.8394 26.0994 71.5146 26.0282 71.1964 25.8857C70.8815 25.7431 70.6197 25.526 70.4109 25.2344C70.2054 24.9427 70.1026 24.5748 70.1026 24.1307V16.5341ZM77.6918 26.1591C77.0024 26.1591 76.3975 25.995 75.8771 25.6669C75.3601 25.3388 74.9557 24.8797 74.6641 24.2898C74.3757 23.6998 74.2315 23.0104 74.2315 22.2216C74.2315 21.4261 74.3757 20.7318 74.6641 20.1385C74.9557 19.5452 75.3601 19.0845 75.8771 18.7564C76.3975 18.4283 77.0024 18.2642 77.6918 18.2642C78.3812 18.2642 78.9844 18.4283 79.5014 18.7564C80.0218 19.0845 80.4261 19.5452 80.7145 20.1385C81.0062 20.7318 81.152 21.4261 81.152 22.2216C81.152 23.0104 81.0062 23.6998 80.7145 24.2898C80.4261 24.8797 80.0218 25.3388 79.5014 25.6669C78.9844 25.995 78.3812 26.1591 77.6918 26.1591ZM77.6918 25.1051C78.2154 25.1051 78.6463 24.9709 78.9844 24.7024C79.3224 24.4339 79.5727 24.081 79.7351 23.6435C79.8975 23.206 79.9787 22.732 79.9787 22.2216C79.9787 21.7112 79.8975 21.2356 79.7351 20.7947C79.5727 20.3539 79.3224 19.9976 78.9844 19.7259C78.6463 19.4541 78.2154 19.3182 77.6918 19.3182C77.1681 19.3182 76.7372 19.4541 76.3991 19.7259C76.0611 19.9976 75.8108 20.3539 75.6484 20.7947C75.486 21.2356 75.4048 21.7112 75.4048 22.2216C75.4048 22.732 75.486 23.206 75.6484 23.6435C75.8108 24.081 76.0611 24.4339 76.3991 24.7024C76.7372 24.9709 77.1681 25.1051 77.6918 25.1051ZM86.0254 29.0227C85.4586 29.0227 84.9714 28.9498 84.5637 28.804C84.1561 28.6615 83.8163 28.4725 83.5446 28.2372C83.2761 28.0052 83.0623 27.7566 82.9032 27.4915L83.8379 26.8352C83.944 26.9744 84.0782 27.1335 84.2406 27.3125C84.403 27.4948 84.6251 27.6522 84.9068 27.7848C85.1918 27.9207 85.5647 27.9886 86.0254 27.9886C86.6419 27.9886 87.1506 27.8395 87.5517 27.5412C87.9527 27.2429 88.1532 26.7756 88.1532 26.1392V24.5881H88.0538C87.9676 24.7273 87.845 24.8996 87.6859 25.1051C87.5301 25.3073 87.3047 25.4879 87.0098 25.647C86.7181 25.8028 86.3237 25.8807 85.8265 25.8807C85.21 25.8807 84.6565 25.7348 84.166 25.4432C83.6788 25.1515 83.2927 24.7273 83.0076 24.1705C82.7259 23.6136 82.585 22.9375 82.585 22.142C82.585 21.3598 82.7226 20.6787 82.9977 20.0987C83.2728 19.5154 83.6556 19.0646 84.1461 18.7464C84.6367 18.425 85.2034 18.2642 85.8464 18.2642C86.3436 18.2642 86.738 18.3471 87.0297 18.5128C87.3246 18.6752 87.55 18.8608 87.7058 19.0696C87.8649 19.2751 87.9875 19.4441 88.0737 19.5767H88.193V18.3636H89.3265V26.2188C89.3265 26.875 89.1774 27.4086 88.8791 27.8196C88.5841 28.2339 88.1864 28.5372 87.6859 28.7294C87.1887 28.925 86.6352 29.0227 86.0254 29.0227ZM85.9856 24.8267C86.4563 24.8267 86.854 24.719 87.1788 24.5036C87.5036 24.2881 87.7505 23.9782 87.9196 23.5739C88.0886 23.1695 88.1731 22.6856 88.1731 22.1222C88.1731 21.572 88.0903 21.0864 87.9245 20.6655C87.7588 20.2446 87.5136 19.9148 87.1887 19.6761C86.8639 19.4375 86.4629 19.3182 85.9856 19.3182C85.4885 19.3182 85.0742 19.4441 84.7427 19.696C84.4146 19.9479 84.1677 20.286 84.002 20.7102C83.8395 21.1345 83.7583 21.6051 83.7583 22.1222C83.7583 22.6525 83.8412 23.1214 84.0069 23.5291C84.176 23.9335 84.4245 24.2517 84.7527 24.4837C85.0841 24.7124 85.4951 24.8267 85.9856 24.8267ZM91.4743 26V18.3636H92.6078V19.517H92.6873C92.8265 19.1392 93.0784 18.8326 93.443 18.5973C93.8076 18.362 94.2186 18.2443 94.676 18.2443C94.7621 18.2443 94.8699 18.246 94.9991 18.2493C95.1284 18.2526 95.2261 18.2576 95.2924 18.2642V19.4574C95.2527 19.4474 95.1615 19.4325 95.019 19.4126C94.8798 19.3894 94.7323 19.3778 94.5765 19.3778C94.2053 19.3778 93.8739 19.4557 93.5822 19.6115C93.2939 19.764 93.0652 19.9761 92.8961 20.2479C92.7304 20.5163 92.6475 20.8229 92.6475 21.1676V26H91.4743ZM98.9304 26.179C98.4465 26.179 98.0073 26.0878 97.6129 25.9055C97.2185 25.7199 96.9053 25.4531 96.6733 25.1051C96.4413 24.7538 96.3253 24.3295 96.3253 23.8324C96.3253 23.3949 96.4115 23.0402 96.5838 22.7685C96.7562 22.4934 96.9865 22.2779 97.2749 22.1222C97.5632 21.9664 97.8814 21.8504 98.2294 21.7741C98.5807 21.6946 98.9337 21.6316 99.2884 21.5852C99.7524 21.5256 100.129 21.4808 100.417 21.451C100.709 21.4179 100.921 21.3632 101.053 21.2869C101.189 21.2107 101.257 21.0781 101.257 20.8892V20.8494C101.257 20.3589 101.123 19.9777 100.854 19.706C100.589 19.4342 100.187 19.2983 99.6463 19.2983C99.0862 19.2983 98.647 19.4209 98.3288 19.6662C98.0107 19.9115 97.7869 20.1733 97.6577 20.4517L96.544 20.054C96.7429 19.59 97.008 19.2287 97.3395 18.9702C97.6742 18.7083 98.0388 18.526 98.4332 18.4233C98.831 18.3172 99.2221 18.2642 99.6065 18.2642C99.8518 18.2642 100.134 18.294 100.452 18.3537C100.773 18.41 101.083 18.5277 101.381 18.7067C101.683 18.8857 101.933 19.1558 102.132 19.517C102.331 19.8783 102.43 20.3622 102.43 20.9688V26H101.257V24.9659H101.197C101.118 25.1316 100.985 25.3089 100.8 25.4979C100.614 25.6868 100.367 25.8475 100.059 25.9801C99.7507 26.1127 99.3745 26.179 98.9304 26.179ZM99.1094 25.125C99.5734 25.125 99.9645 25.0339 100.283 24.8516C100.604 24.6693 100.846 24.4339 101.009 24.1456C101.174 23.8572 101.257 23.554 101.257 23.2358V22.1619C101.207 22.2216 101.098 22.2763 100.929 22.326C100.763 22.3724 100.571 22.4138 100.352 22.4503C100.137 22.4834 99.9264 22.5133 99.7209 22.5398C99.5187 22.563 99.3546 22.5829 99.2287 22.5994C98.9238 22.6392 98.6387 22.7038 98.3736 22.7933C98.1117 22.8795 97.8996 23.0104 97.7372 23.1861C97.5781 23.3584 97.4986 23.5937 97.4986 23.892C97.4986 24.2997 97.6494 24.608 97.951 24.8168C98.2559 25.0223 98.642 25.125 99.1094 25.125ZM104.572 28.8636V18.3636H105.705V19.5767H105.845C105.931 19.4441 106.05 19.2751 106.203 19.0696C106.358 18.8608 106.58 18.6752 106.869 18.5128C107.16 18.3471 107.555 18.2642 108.052 18.2642C108.695 18.2642 109.262 18.425 109.752 18.7464C110.243 19.0679 110.626 19.5237 110.901 20.1136C111.176 20.7036 111.313 21.3996 111.313 22.2017C111.313 23.0104 111.176 23.7114 110.901 24.3047C110.626 24.8946 110.244 25.352 109.757 25.6768C109.27 25.9983 108.708 26.1591 108.072 26.1591C107.581 26.1591 107.189 26.0779 106.894 25.9155C106.599 25.7498 106.372 25.5625 106.213 25.3537C106.053 25.1416 105.931 24.9659 105.845 24.8267H105.745V28.8636H104.572ZM105.725 22.1818C105.725 22.7585 105.81 23.2673 105.979 23.7081C106.148 24.1456 106.395 24.4886 106.72 24.7372C107.044 24.9825 107.442 25.1051 107.913 25.1051C108.403 25.1051 108.813 24.9759 109.141 24.7173C109.472 24.4555 109.721 24.1042 109.887 23.6634C110.056 23.2192 110.14 22.7254 110.14 22.1818C110.14 21.6449 110.057 21.161 109.892 20.7301C109.729 20.2959 109.482 19.9529 109.151 19.701C108.823 19.4458 108.41 19.3182 107.913 19.3182C107.436 19.3182 107.035 19.4392 106.71 19.6811C106.385 19.9197 106.14 20.2545 105.974 20.6854C105.808 21.1129 105.725 21.6117 105.725 22.1818ZM114.276 21.4062V26H113.103V15.8182H114.276V19.5568H114.376C114.555 19.1624 114.823 18.8492 115.181 18.6172C115.543 18.3819 116.023 18.2642 116.623 18.2642C117.143 18.2642 117.599 18.3686 117.99 18.5774C118.381 18.7829 118.685 19.0994 118.9 19.527C119.119 19.9512 119.228 20.4915 119.228 21.1477V26H118.055V21.2273C118.055 20.6207 117.897 20.1518 117.583 19.8203C117.271 19.4856 116.838 19.3182 116.285 19.3182C115.901 19.3182 115.556 19.3994 115.251 19.5618C114.949 19.7242 114.711 19.9612 114.535 20.2727C114.363 20.5843 114.276 20.9621 114.276 21.4062ZM121.857 28.8636C121.658 28.8636 121.481 28.8471 121.325 28.8139C121.169 28.7841 121.061 28.7543 121.002 28.7244L121.3 27.6903C121.585 27.7633 121.837 27.7898 122.056 27.7699C122.275 27.75 122.468 27.6522 122.637 27.4766C122.81 27.3042 122.967 27.0241 123.11 26.6364L123.328 26.0398L120.505 18.3636H121.777L123.885 24.4489H123.965L126.073 18.3636H127.346L124.104 27.1136C123.958 27.508 123.778 27.8345 123.562 28.093C123.347 28.3549 123.096 28.5488 122.811 28.6747C122.53 28.8007 122.212 28.8636 121.857 28.8636Z" fill="black"/>
<path d="M30.5893 27.0404L25.8978 23.6319L33.7586 17.9206C33.9159 18.5859 33.9996 19.2793 33.9996 19.9919C33.9996 22.8441 32.6657 25.3903 30.5893 27.0404Z" fill="#FF5069"/>
<path d="M29.6762 27.6799C28.3128 28.5122 26.7119 28.9922 25.001 28.9922C23.1622 28.9922 21.4508 28.4375 20.0244 27.4872L21.8173 21.9699L29.6762 27.6799Z" fill="#FF5069"/>
<path d="M19.1339 26.8119C17.2162 25.1602 16 22.7155 16 19.9919C16 19.155 16.1152 18.3446 16.3299 17.5753H22.1353L19.1339 26.8119Z" fill="#FF5069"/>
<path d="M16.6969 16.5201C18.0118 13.3867 21.0505 11.1492 24.6199 11L26.4135 16.5201H16.6969Z" fill="#FF5069"/>
<path d="M25.7365 11.022C29.2749 11.3096 32.2408 13.6527 33.4356 16.8525L28.7395 20.2644L25.7365 11.022Z" fill="#FF5069"/>
</svg>
