<svg width="98" height="40" viewBox="0 0 98 40" fill="none" xmlns="http://www.w3.org/2000/svg">
<rect width="98" height="40" rx="20" fill="#FF5069"/>
<path d="M44.233 15.8182H45.7045L49.1648 24.2699H49.2841L52.7443 15.8182H54.2159V26H53.0625V18.2642H52.9631L49.7812 26H48.6676L45.4858 18.2642H45.3864V26H44.233V15.8182ZM61.3414 22.8778V18.3636H62.5147V26H61.3414V24.7074H61.2619C61.0829 25.0952 60.8045 25.425 60.4267 25.6967C60.0488 25.9652 59.5716 26.0994 58.9949 26.0994C58.5176 26.0994 58.0933 25.995 57.7221 25.7862C57.3509 25.5741 57.0592 25.2559 56.8471 24.8317C56.635 24.4041 56.5289 23.8655 56.5289 23.2159V18.3636H57.7022V23.1364C57.7022 23.6932 57.858 24.1373 58.1696 24.4688C58.4844 24.8002 58.8855 24.9659 59.3727 24.9659C59.6644 24.9659 59.961 24.8913 60.2626 24.7422C60.5675 24.593 60.8227 24.3643 61.0282 24.0561C61.237 23.7479 61.3414 23.3551 61.3414 22.8778ZM70.0728 20.0739L69.0188 20.3722C68.9525 20.1965 68.8548 20.0258 68.7255 19.8601C68.5996 19.6911 68.4272 19.5518 68.2085 19.4425C67.9897 19.3331 67.7096 19.2784 67.3683 19.2784C66.9009 19.2784 66.5115 19.3861 66.1999 19.6016C65.8917 19.8137 65.7376 20.0838 65.7376 20.4119C65.7376 20.7036 65.8436 20.9339 66.0558 21.103C66.2679 21.272 66.5993 21.4129 67.0501 21.5256L68.1836 21.804C68.8664 21.9697 69.3751 22.2232 69.7099 22.5646C70.0446 22.9027 70.212 23.3385 70.212 23.8722C70.212 24.3097 70.0861 24.7008 69.8342 25.0455C69.5856 25.3902 69.2376 25.6619 68.7901 25.8608C68.3427 26.0597 67.8223 26.1591 67.229 26.1591C66.4502 26.1591 65.8055 25.9901 65.2951 25.652C64.7847 25.3139 64.4615 24.8201 64.3256 24.1705L65.4393 23.892C65.5453 24.303 65.7459 24.6113 66.0408 24.8168C66.3391 25.0223 66.7286 25.125 67.2092 25.125C67.756 25.125 68.1902 25.009 68.5117 24.777C68.8365 24.5417 68.9989 24.2599 68.9989 23.9318C68.9989 23.6667 68.9061 23.4446 68.7205 23.2656C68.5349 23.0833 68.2499 22.9474 67.8654 22.858L66.5927 22.5597C65.8933 22.3939 65.3796 22.1371 65.0515 21.7891C64.7267 21.4377 64.5643 20.9986 64.5643 20.4716C64.5643 20.0407 64.6853 19.6596 64.9272 19.3281C65.1725 18.9967 65.5056 18.7365 65.9265 18.5476C66.3507 18.3587 66.8313 18.2642 67.3683 18.2642C68.1239 18.2642 68.7172 18.4299 69.1481 18.7614C69.5823 19.0928 69.8905 19.5303 70.0728 20.0739ZM71.9782 26V18.3636H73.1515V26H71.9782ZM72.5748 17.0909C72.3461 17.0909 72.1489 17.013 71.9831 16.8572C71.8207 16.7015 71.7395 16.5142 71.7395 16.2955C71.7395 16.0767 71.8207 15.8894 71.9831 15.7337C72.1489 15.5779 72.3461 15.5 72.5748 15.5C72.8034 15.5 72.999 15.5779 73.1614 15.7337C73.3271 15.8894 73.41 16.0767 73.41 16.2955C73.41 16.5142 73.3271 16.7015 73.1614 16.8572C72.999 17.013 72.8034 17.0909 72.5748 17.0909ZM78.4027 26.1591C77.6868 26.1591 77.0703 25.9901 76.5533 25.652C76.0362 25.3139 75.6385 24.8482 75.3601 24.255C75.0817 23.6617 74.9425 22.9839 74.9425 22.2216C74.9425 21.446 75.085 20.7616 75.37 20.1683C75.6584 19.5717 76.0594 19.1061 76.5732 18.7713C77.0902 18.4332 77.6934 18.2642 78.3828 18.2642C78.9197 18.2642 79.4036 18.3636 79.8345 18.5625C80.2654 18.7614 80.6184 19.0398 80.8935 19.3977C81.1686 19.7557 81.3393 20.1733 81.4055 20.6506H80.2322C80.1428 20.3026 79.9439 19.9943 79.6357 19.7259C79.3307 19.4541 78.9197 19.3182 78.4027 19.3182C77.9453 19.3182 77.5443 19.4375 77.1996 19.6761C76.8582 19.9115 76.5914 20.2446 76.3991 20.6754C76.2102 21.103 76.1158 21.6051 76.1158 22.1818C76.1158 22.7718 76.2086 23.2855 76.3942 23.723C76.5831 24.1605 76.8482 24.5002 77.1896 24.7422C77.5343 24.9841 77.9387 25.1051 78.4027 25.1051C78.7076 25.1051 78.9844 25.0521 79.233 24.946C79.4815 24.84 79.692 24.6875 79.8643 24.4886C80.0367 24.2898 80.1593 24.0511 80.2322 23.7727H81.4055C81.3393 24.2235 81.1752 24.6295 80.9134 24.9908C80.6548 25.3487 80.3118 25.6338 79.8842 25.8459C79.46 26.0547 78.9661 26.1591 78.4027 26.1591Z" fill="white"/>
<path d="M21.5373 14.5178V22.7996C21.0553 22.3697 20.4203 22.108 19.7252 22.108C18.2225 22.108 17 23.3305 17 24.8332C17 26.3359 18.2225 27.5584 19.7252 27.5584C21.226 27.5584 22.4472 26.339 22.4503 24.8389H22.4504V18.1831L30.5565 16.1283V20.6012C30.0746 20.1713 29.4395 19.9095 28.7444 19.9095C27.2417 19.9095 26.0192 21.1321 26.0192 22.6347C26.0192 24.1374 27.2417 25.3599 28.7444 25.3599C30.2471 25.3599 31.4696 24.1374 31.4696 22.6347V12L21.5373 14.5178Z" fill="white"/>
</svg>
