<svg width="99" height="40" viewBox="0 0 99 40" fill="none" xmlns="http://www.w3.org/2000/svg">
<rect width="99" height="40" rx="20" fill="white"/>
<path d="M43.6761 16.9119V15.8182H51.3125V16.9119H48.1108V26H46.8778V16.9119H43.6761ZM52.2633 26V18.3636H53.3968V19.517H53.4764C53.6156 19.1392 53.8675 18.8326 54.2321 18.5973C54.5967 18.362 55.0076 18.2443 55.465 18.2443C55.5512 18.2443 55.6589 18.246 55.7882 18.2493C55.9174 18.2526 56.0152 18.2576 56.0815 18.2642V19.4574C56.0417 19.4474 55.9506 19.4325 55.8081 19.4126C55.6689 19.3894 55.5214 19.3778 55.3656 19.3778C54.9944 19.3778 54.6629 19.4557 54.3713 19.6115C54.0829 19.764 53.8542 19.9761 53.6852 20.2479C53.5195 20.5163 53.4366 20.8229 53.4366 21.1676V26H52.2633ZM59.7195 26.179C59.2356 26.179 58.7964 26.0878 58.402 25.9055C58.0076 25.7199 57.6944 25.4531 57.4624 25.1051C57.2304 24.7538 57.1143 24.3295 57.1143 23.8324C57.1143 23.3949 57.2005 23.0402 57.3729 22.7685C57.5452 22.4934 57.7756 22.2779 58.0639 22.1222C58.3523 21.9664 58.6705 21.8504 59.0185 21.7741C59.3698 21.6946 59.7228 21.6316 60.0774 21.5852C60.5414 21.5256 60.9176 21.4808 61.206 21.451C61.4976 21.4179 61.7098 21.3632 61.8423 21.2869C61.9782 21.2107 62.0462 21.0781 62.0462 20.8892V20.8494C62.0462 20.3589 61.9119 19.9777 61.6435 19.706C61.3783 19.4342 60.9756 19.2983 60.4354 19.2983C59.8752 19.2983 59.4361 19.4209 59.1179 19.6662C58.7997 19.9115 58.576 20.1733 58.4467 20.4517L57.3331 20.054C57.532 19.59 57.7971 19.2287 58.1286 18.9702C58.4633 18.7083 58.8279 18.526 59.2223 18.4233C59.62 18.3172 60.0111 18.2642 60.3956 18.2642C60.6409 18.2642 60.9226 18.294 61.2408 18.3537C61.5623 18.41 61.8722 18.5277 62.1705 18.7067C62.4721 18.8857 62.7223 19.1558 62.9212 19.517C63.12 19.8783 63.2195 20.3622 63.2195 20.9688V26H62.0462V24.9659H61.9865C61.907 25.1316 61.7744 25.3089 61.5888 25.4979C61.4032 25.6868 61.1563 25.8475 60.848 25.9801C60.5398 26.1127 60.1636 26.179 59.7195 26.179ZM59.8984 25.125C60.3625 25.125 60.7536 25.0339 61.0717 24.8516C61.3932 24.6693 61.6352 24.4339 61.7976 24.1456C61.9633 23.8572 62.0462 23.554 62.0462 23.2358V22.1619C61.9964 22.2216 61.8871 22.2763 61.718 22.326C61.5523 22.3724 61.3601 22.4138 61.1413 22.4503C60.9259 22.4834 60.7154 22.5133 60.5099 22.5398C60.3078 22.563 60.1437 22.5829 60.0178 22.5994C59.7128 22.6392 59.4278 22.7038 59.1626 22.7933C58.9008 22.8795 58.6887 23.0104 58.5263 23.1861C58.3672 23.3584 58.2876 23.5937 58.2876 23.892C58.2876 24.2997 58.4384 24.608 58.7401 24.8168C59.045 25.0223 59.4311 25.125 59.8984 25.125ZM71.3319 18.3636L68.508 26H67.3148L64.4909 18.3636H65.7637L67.8716 24.4489H67.9512L70.0591 18.3636H71.3319ZM75.8088 26.1591C75.073 26.1591 74.4383 25.9967 73.9047 25.6719C73.3743 25.3438 72.965 24.8864 72.6767 24.2997C72.3916 23.7098 72.2491 23.0237 72.2491 22.2415C72.2491 21.4593 72.3916 20.7699 72.6767 20.1733C72.965 19.5734 73.3661 19.1061 73.8798 18.7713C74.3968 18.4332 75.0001 18.2642 75.6895 18.2642C76.0872 18.2642 76.4799 18.3305 76.8677 18.4631C77.2555 18.5956 77.6085 18.8111 77.9267 19.1094C78.2449 19.4044 78.4984 19.7955 78.6873 20.2827C78.8762 20.7699 78.9707 21.3698 78.9707 22.0824V22.5795H73.0843V21.5653H77.7775C77.7775 21.1345 77.6913 20.75 77.519 20.4119C77.35 20.0739 77.108 19.8071 76.7931 19.6115C76.4816 19.416 76.1137 19.3182 75.6895 19.3182C75.2221 19.3182 74.8178 19.4342 74.4764 19.6662C74.1383 19.8949 73.8781 20.1932 73.6958 20.5611C73.5136 20.929 73.4224 21.3234 73.4224 21.7443V22.4205C73.4224 22.9972 73.5218 23.486 73.7207 23.8871C73.9229 24.2848 74.2029 24.5881 74.5609 24.7969C74.9189 25.0024 75.3348 25.1051 75.8088 25.1051C76.117 25.1051 76.3954 25.062 76.644 24.9759C76.8959 24.8864 77.113 24.7538 77.2953 24.5781C77.4776 24.3991 77.6184 24.1771 77.7179 23.9119L78.8514 24.2301C78.7321 24.6146 78.5315 24.9527 78.2498 25.2443C77.9681 25.5327 77.6201 25.758 77.2058 25.9205C76.7915 26.0795 76.3258 26.1591 75.8088 26.1591ZM81.9288 15.8182V26H80.7555V15.8182H81.9288Z" fill="black"/>
<path d="M32.548 12.452C31.9364 11.8405 30.9419 11.8508 30.3431 12.4747L27.0654 15.8903L19.0666 13.2432L17.3875 14.9223L24.0547 19.0274L20.6811 22.5429L18.5177 22.1877L17 23.7053L20.1806 24.8194L21.2947 28L22.8123 26.4823L22.4571 24.3189L25.9726 20.9453L30.0777 27.6125L31.7568 25.9334L29.1098 17.9346L32.5252 14.6569C33.1492 14.0581 33.1595 13.0636 32.548 12.452Z" fill="#FF5069"/>
</svg>
