<svg width="112" height="40" viewBox="0 0 112 40" fill="none" xmlns="http://www.w3.org/2000/svg">
<rect width="112" height="40" rx="20" fill="#FF5069"/>
<path d="M44.233 26V15.8182H47.6733C48.4688 15.8182 49.1217 15.9541 49.6321 16.2259C50.1425 16.4943 50.5204 16.8639 50.7656 17.3345C51.0109 17.8052 51.1335 18.3404 51.1335 18.9403C51.1335 19.5402 51.0109 20.0722 50.7656 20.5362C50.5204 21.0002 50.1442 21.3648 49.6371 21.63C49.13 21.8918 48.482 22.0227 47.6932 22.0227H44.9091V20.9091H47.6534C48.197 20.9091 48.6345 20.8295 48.9659 20.6705C49.3007 20.5114 49.5426 20.286 49.6918 19.9943C49.8442 19.6993 49.9205 19.348 49.9205 18.9403C49.9205 18.5327 49.8442 18.1764 49.6918 17.8714C49.5393 17.5665 49.2957 17.3312 48.9609 17.1655C48.6262 16.9964 48.1837 16.9119 47.6335 16.9119H45.4659V26H44.233ZM49.0256 21.4261L51.5312 26H50.0994L47.6335 21.4261H49.0256ZM56.1486 26.1591C55.4128 26.1591 54.7781 25.9967 54.2445 25.6719C53.7142 25.3438 53.3049 24.8864 53.0165 24.2997C52.7315 23.7098 52.589 23.0237 52.589 22.2415C52.589 21.4593 52.7315 20.7699 53.0165 20.1733C53.3049 19.5734 53.7059 19.1061 54.2196 18.7713C54.7367 18.4332 55.3399 18.2642 56.0293 18.2642C56.427 18.2642 56.8198 18.3305 57.2076 18.4631C57.5953 18.5956 57.9483 18.8111 58.2665 19.1094C58.5847 19.4044 58.8382 19.7955 59.0272 20.2827C59.2161 20.7699 59.3105 21.3698 59.3105 22.0824V22.5795H53.4242V21.5653H58.1174C58.1174 21.1345 58.0312 20.75 57.8588 20.4119C57.6898 20.0739 57.4479 19.8071 57.133 19.6115C56.8214 19.416 56.4535 19.3182 56.0293 19.3182C55.562 19.3182 55.1576 19.4342 54.8162 19.6662C54.4782 19.8949 54.218 20.1932 54.0357 20.5611C53.8534 20.929 53.7623 21.3234 53.7623 21.7443V22.4205C53.7623 22.9972 53.8617 23.486 54.0605 23.8871C54.2627 24.2848 54.5428 24.5881 54.9007 24.7969C55.2587 25.0024 55.6747 25.1051 56.1486 25.1051C56.4569 25.1051 56.7353 25.062 56.9838 24.9759C57.2357 24.8864 57.4528 24.7538 57.6351 24.5781C57.8174 24.3991 57.9583 24.1771 58.0577 23.9119L59.1912 24.2301C59.0719 24.6146 58.8714 24.9527 58.5897 25.2443C58.3079 25.5327 57.9599 25.758 57.5456 25.9205C57.1313 26.0795 56.6657 26.1591 56.1486 26.1591ZM63.3425 26.179C62.8586 26.179 62.4194 26.0878 62.025 25.9055C61.6306 25.7199 61.3174 25.4531 61.0854 25.1051C60.8534 24.7538 60.7374 24.3295 60.7374 23.8324C60.7374 23.3949 60.8236 23.0402 60.9959 22.7685C61.1683 22.4934 61.3986 22.2779 61.687 22.1222C61.9753 21.9664 62.2935 21.8504 62.6415 21.7741C62.9928 21.6946 63.3458 21.6316 63.7005 21.5852C64.1645 21.5256 64.5407 21.4808 64.829 21.451C65.1207 21.4179 65.3328 21.3632 65.4654 21.2869C65.6013 21.2107 65.6692 21.0781 65.6692 20.8892V20.8494C65.6692 20.3589 65.535 19.9777 65.2665 19.706C65.0014 19.4342 64.5987 19.2983 64.0584 19.2983C63.4983 19.2983 63.0591 19.4209 62.7409 19.6662C62.4228 19.9115 62.199 20.1733 62.0698 20.4517L60.9561 20.054C61.155 19.59 61.4202 19.2287 61.7516 18.9702C62.0864 18.7083 62.4509 18.526 62.8453 18.4233C63.2431 18.3172 63.6342 18.2642 64.0186 18.2642C64.2639 18.2642 64.5456 18.294 64.8638 18.3537C65.1853 18.41 65.4952 18.5277 65.7935 18.7067C66.0951 18.8857 66.3453 19.1558 66.5442 19.517C66.7431 19.8783 66.8425 20.3622 66.8425 20.9688V26H65.6692V24.9659H65.6096C65.53 25.1316 65.3974 25.3089 65.2118 25.4979C65.0262 25.6868 64.7793 25.8475 64.4711 25.9801C64.1628 26.1127 63.7866 26.179 63.3425 26.179ZM63.5215 25.125C63.9855 25.125 64.3766 25.0339 64.6948 24.8516C65.0163 24.6693 65.2582 24.4339 65.4206 24.1456C65.5864 23.8572 65.6692 23.554 65.6692 23.2358V22.1619C65.6195 22.2216 65.5101 22.2763 65.3411 22.326C65.1754 22.3724 64.9831 22.4138 64.7644 22.4503C64.5489 22.4834 64.3385 22.5133 64.133 22.5398C63.9308 22.563 63.7667 22.5829 63.6408 22.5994C63.3359 22.6392 63.0508 22.7038 62.7857 22.7933C62.5239 22.8795 62.3117 23.0104 62.1493 23.1861C61.9902 23.3584 61.9107 23.5937 61.9107 23.892C61.9107 24.2997 62.0615 24.608 62.3631 24.8168C62.668 25.0223 63.0542 25.125 63.5215 25.125ZM71.8675 26.1591C71.2312 26.1591 70.6694 25.9983 70.1822 25.6768C69.695 25.352 69.3138 24.8946 69.0387 24.3047C68.7636 23.7114 68.6261 23.0104 68.6261 22.2017C68.6261 21.3996 68.7636 20.7036 69.0387 20.1136C69.3138 19.5237 69.6966 19.0679 70.1871 18.7464C70.6777 18.425 71.2444 18.2642 71.8874 18.2642C72.3846 18.2642 72.7773 18.3471 73.0657 18.5128C73.3574 18.6752 73.5794 18.8608 73.7319 19.0696C73.8877 19.2751 74.0086 19.4441 74.0948 19.5767H74.1942V15.8182H75.3675V26H74.234V24.8267H74.0948C74.0086 24.9659 73.886 25.1416 73.7269 25.3537C73.5678 25.5625 73.3408 25.7498 73.0458 25.9155C72.7508 26.0779 72.3581 26.1591 71.8675 26.1591ZM72.0266 25.1051C72.4973 25.1051 72.895 24.9825 73.2198 24.7372C73.5446 24.4886 73.7915 24.1456 73.9606 23.7081C74.1296 23.2673 74.2141 22.7585 74.2141 22.1818C74.2141 21.6117 74.1313 21.1129 73.9656 20.6854C73.7998 20.2545 73.5546 19.9197 73.2298 19.6811C72.9049 19.4392 72.5039 19.3182 72.0266 19.3182C71.5295 19.3182 71.1152 19.4458 70.7837 19.701C70.4556 19.9529 70.2087 20.2959 70.043 20.7301C69.8806 21.161 69.7994 21.6449 69.7994 22.1818C69.7994 22.7254 69.8822 23.2192 70.0479 23.6634C70.217 24.1042 70.4656 24.4555 70.7937 24.7173C71.1251 24.9759 71.5361 25.1051 72.0266 25.1051ZM77.6793 26V18.3636H78.8526V26H77.6793ZM78.2759 17.0909C78.0472 17.0909 77.85 17.013 77.6843 16.8572C77.5219 16.7015 77.4407 16.5142 77.4407 16.2955C77.4407 16.0767 77.5219 15.8894 77.6843 15.7337C77.85 15.5779 78.0472 15.5 78.2759 15.5C78.5046 15.5 78.7002 15.5779 78.8626 15.7337C79.0283 15.8894 79.1112 16.0767 79.1112 16.2955C79.1112 16.5142 79.0283 16.7015 78.8626 16.8572C78.7002 17.013 78.5046 17.0909 78.2759 17.0909ZM82.1749 21.4062V26H81.0016V18.3636H82.1351V19.5568H82.2346C82.4135 19.169 82.6853 18.8575 83.0499 18.6222C83.4145 18.3835 83.8851 18.2642 84.4618 18.2642C84.9789 18.2642 85.4313 18.3703 85.8191 18.5824C86.2069 18.7912 86.5085 19.1094 86.7239 19.5369C86.9393 19.9612 87.0471 20.4981 87.0471 21.1477V26H85.8738V21.2273C85.8738 20.6274 85.718 20.16 85.4064 19.8253C85.0949 19.4872 84.6673 19.3182 84.1238 19.3182C83.7492 19.3182 83.4145 19.3994 83.1195 19.5618C82.8278 19.7242 82.5975 19.9612 82.4284 20.2727C82.2594 20.5843 82.1749 20.9621 82.1749 21.4062ZM92.2734 29.0227C91.7067 29.0227 91.2195 28.9498 90.8118 28.804C90.4041 28.6615 90.0644 28.4725 89.7926 28.2372C89.5241 28.0052 89.3104 27.7566 89.1513 27.4915L90.0859 26.8352C90.192 26.9744 90.3262 27.1335 90.4886 27.3125C90.651 27.4948 90.8731 27.6522 91.1548 27.7848C91.4399 27.9207 91.8127 27.9886 92.2734 27.9886C92.8899 27.9886 93.3987 27.8395 93.7997 27.5412C94.2008 27.2429 94.4013 26.7756 94.4013 26.1392V24.5881H94.3018C94.2157 24.7273 94.093 24.8996 93.9339 25.1051C93.7782 25.3073 93.5528 25.4879 93.2578 25.647C92.9661 25.8028 92.5717 25.8807 92.0746 25.8807C91.4581 25.8807 90.9046 25.7348 90.4141 25.4432C89.9268 25.1515 89.5407 24.7273 89.2557 24.1705C88.974 23.6136 88.8331 22.9375 88.8331 22.142C88.8331 21.3598 88.9706 20.6787 89.2457 20.0987C89.5208 19.5154 89.9036 19.0646 90.3942 18.7464C90.8847 18.425 91.4515 18.2642 92.0945 18.2642C92.5916 18.2642 92.986 18.3471 93.2777 18.5128C93.5727 18.6752 93.7981 18.8608 93.9538 19.0696C94.1129 19.2751 94.2356 19.4441 94.3217 19.5767H94.4411V18.3636H95.5746V26.2188C95.5746 26.875 95.4254 27.4086 95.1271 27.8196C94.8321 28.2339 94.4344 28.5372 93.9339 28.7294C93.4368 28.925 92.8833 29.0227 92.2734 29.0227ZM92.2337 24.8267C92.7043 24.8267 93.102 24.719 93.4268 24.5036C93.7517 24.2881 93.9986 23.9782 94.1676 23.5739C94.3366 23.1695 94.4212 22.6856 94.4212 22.1222C94.4212 21.572 94.3383 21.0864 94.1726 20.6655C94.0069 20.2446 93.7616 19.9148 93.4368 19.6761C93.112 19.4375 92.7109 19.3182 92.2337 19.3182C91.7365 19.3182 91.3222 19.4441 90.9908 19.696C90.6626 19.9479 90.4157 20.286 90.25 20.7102C90.0876 21.1345 90.0064 21.6051 90.0064 22.1222C90.0064 22.6525 90.0893 23.1214 90.255 23.5291C90.424 23.9335 90.6726 24.2517 91.0007 24.4837C91.3321 24.7124 91.7431 24.8267 92.2337 24.8267Z" fill="white"/>
<path d="M19.3899 14C19.3894 14 19.389 14 19.3886 14C19.2408 14 19.1019 14.0576 18.997 14.1622C18.8909 14.268 18.8325 14.4089 18.8325 14.5589V22.939C18.8325 23.2464 19.0835 23.497 19.3921 23.4978C20.6929 23.5009 22.8723 23.772 24.3758 25.3454V16.5753C24.3758 16.4711 24.3492 16.3733 24.299 16.2923C23.065 14.305 20.6937 14.003 19.3899 14Z" fill="white"/>
<path d="M30.7863 22.9391V14.5589C30.7863 14.4089 30.7279 14.268 30.6218 14.1622C30.5169 14.0576 30.3779 14 30.2303 14C30.2299 14 30.2294 14 30.229 14C28.9252 14.0031 26.5539 14.305 25.3198 16.2923C25.2696 16.3733 25.243 16.4712 25.243 16.5753V25.3454C26.7465 23.772 28.926 23.5009 30.2268 23.4978C30.5353 23.497 30.7863 23.2464 30.7863 22.9391Z" fill="white"/>
<path d="M32.0589 15.9326H31.6536V22.939C31.6536 23.7237 31.0144 24.3635 30.2285 24.3654C29.1251 24.368 27.3058 24.5838 26.0173 25.8033C28.2458 25.2577 30.5949 25.6123 31.9338 25.9174C32.1009 25.9555 32.2737 25.9162 32.4076 25.8094C32.5411 25.7029 32.6176 25.5438 32.6176 25.3729V16.4914C32.6177 16.1833 32.3669 15.9326 32.0589 15.9326Z" fill="white"/>
<path d="M17.964 22.939V15.9326H17.5588C17.2507 15.9326 17 16.1833 17 16.4914V25.3728C17 25.5437 17.0766 25.7028 17.21 25.8093C17.3439 25.916 17.5164 25.9555 17.6839 25.9173C19.0227 25.6121 21.3719 25.2575 23.6002 25.8031C22.3118 24.5837 20.4925 24.368 19.3891 24.3653C18.6033 24.3635 17.964 23.7237 17.964 22.939Z" fill="white"/>
</svg>
