<svg width="106" height="40" viewBox="0 0 106 40" fill="none" xmlns="http://www.w3.org/2000/svg">
<rect width="106" height="40" rx="20" fill="white"/>
<path d="M52.4261 19H51.1932C51.1203 18.6454 50.9927 18.3338 50.8104 18.0653C50.6314 17.7969 50.4126 17.5715 50.1541 17.3892C49.8989 17.2036 49.6155 17.0644 49.304 16.9716C48.9924 16.8788 48.6676 16.8324 48.3295 16.8324C47.7131 16.8324 47.1546 16.9882 46.6541 17.2997C46.157 17.6113 45.7609 18.0703 45.4659 18.6768C45.1742 19.2834 45.0284 20.0275 45.0284 20.9091C45.0284 21.7907 45.1742 22.5348 45.4659 23.1413C45.7609 23.7479 46.157 24.2069 46.6541 24.5185C47.1546 24.83 47.7131 24.9858 48.3295 24.9858C48.6676 24.9858 48.9924 24.9394 49.304 24.8466C49.6155 24.7538 49.8989 24.6162 50.1541 24.4339C50.4126 24.2483 50.6314 24.0213 50.8104 23.7528C50.9927 23.4811 51.1203 23.1695 51.1932 22.8182H52.4261C52.3333 23.3385 52.1643 23.8042 51.919 24.2152C51.6738 24.6262 51.3688 24.9759 51.0043 25.2642C50.6397 25.5492 50.2304 25.7663 49.7763 25.9155C49.3255 26.0646 48.8433 26.1392 48.3295 26.1392C47.4612 26.1392 46.6889 25.9271 46.0128 25.5028C45.3366 25.0786 44.8047 24.4754 44.4169 23.6932C44.0291 22.911 43.8352 21.983 43.8352 20.9091C43.8352 19.8352 44.0291 18.9072 44.4169 18.125C44.8047 17.3428 45.3366 16.7396 46.0128 16.3153C46.6889 15.8911 47.4612 15.679 48.3295 15.679C48.8433 15.679 49.3255 15.7536 49.7763 15.9027C50.2304 16.0518 50.6397 16.2706 51.0043 16.5589C51.3688 16.844 51.6738 17.192 51.919 17.603C52.1643 18.0107 52.3333 18.4763 52.4261 19ZM55.4327 21.4062V26H54.2594V15.8182H55.4327V19.5568H55.5321C55.7111 19.1624 55.9796 18.8492 56.3375 18.6172C56.6988 18.3819 57.1794 18.2642 57.7793 18.2642C58.2997 18.2642 58.7554 18.3686 59.1465 18.5774C59.5376 18.7829 59.8409 19.0994 60.0563 19.527C60.275 19.9512 60.3844 20.4915 60.3844 21.1477V26H59.2111V21.2273C59.2111 20.6207 59.0537 20.1518 58.7388 19.8203C58.4273 19.4856 57.9947 19.3182 57.4412 19.3182C57.0568 19.3182 56.7121 19.3994 56.4071 19.5618C56.1055 19.7242 55.8669 19.9612 55.6912 20.2727C55.5189 20.5843 55.4327 20.9621 55.4327 21.4062ZM64.7781 26.179C64.2942 26.179 63.855 26.0878 63.4606 25.9055C63.0662 25.7199 62.753 25.4531 62.521 25.1051C62.2889 24.7538 62.1729 24.3295 62.1729 23.8324C62.1729 23.3949 62.2591 23.0402 62.4315 22.7685C62.6038 22.4934 62.8342 22.2779 63.1225 22.1222C63.4109 21.9664 63.729 21.8504 64.0771 21.7741C64.4284 21.6946 64.7814 21.6316 65.136 21.5852C65.6 21.5256 65.9762 21.4808 66.2646 21.451C66.5562 21.4179 66.7683 21.3632 66.9009 21.2869C67.0368 21.2107 67.1048 21.0781 67.1048 20.8892V20.8494C67.1048 20.3589 66.9705 19.9777 66.7021 19.706C66.4369 19.4342 66.0342 19.2983 65.494 19.2983C64.9338 19.2983 64.4947 19.4209 64.1765 19.6662C63.8583 19.9115 63.6346 20.1733 63.5053 20.4517L62.3917 20.054C62.5906 19.59 62.8557 19.2287 63.1871 18.9702C63.5219 18.7083 63.8865 18.526 64.2809 18.4233C64.6786 18.3172 65.0697 18.2642 65.4542 18.2642C65.6995 18.2642 65.9812 18.294 66.2994 18.3537C66.6209 18.41 66.9308 18.5277 67.229 18.7067C67.5307 18.8857 67.7809 19.1558 67.9798 19.517C68.1786 19.8783 68.2781 20.3622 68.2781 20.9688V26H67.1048V24.9659H67.0451C66.9656 25.1316 66.833 25.3089 66.6474 25.4979C66.4618 25.6868 66.2148 25.8475 65.9066 25.9801C65.5984 26.1127 65.2222 26.179 64.7781 26.179ZM64.957 25.125C65.421 25.125 65.8121 25.0339 66.1303 24.8516C66.4518 24.6693 66.6938 24.4339 66.8562 24.1456C67.0219 23.8572 67.1048 23.554 67.1048 23.2358V22.1619C67.055 22.2216 66.9457 22.2763 66.7766 22.326C66.6109 22.3724 66.4187 22.4138 66.1999 22.4503C65.9845 22.4834 65.774 22.5133 65.5685 22.5398C65.3664 22.563 65.2023 22.5829 65.0763 22.5994C64.7714 22.6392 64.4864 22.7038 64.2212 22.7933C63.9594 22.8795 63.7473 23.0104 63.5849 23.1861C63.4258 23.3584 63.3462 23.5937 63.3462 23.892C63.3462 24.2997 63.497 24.608 63.7987 24.8168C64.1036 25.0223 64.4897 25.125 64.957 25.125ZM70.4196 26V18.3636H71.5531V19.517H71.6326C71.7718 19.1392 72.0237 18.8326 72.3883 18.5973C72.7529 18.362 73.1639 18.2443 73.6213 18.2443C73.7074 18.2443 73.8152 18.246 73.9444 18.2493C74.0737 18.2526 74.1715 18.2576 74.2377 18.2642V19.4574C74.198 19.4474 74.1068 19.4325 73.9643 19.4126C73.8251 19.3894 73.6776 19.3778 73.5218 19.3778C73.1506 19.3778 72.8192 19.4557 72.5275 19.6115C72.2392 19.764 72.0105 19.9761 71.8414 20.2479C71.6757 20.5163 71.5929 20.8229 71.5929 21.1676V26H70.4196ZM75.6286 26V18.3636H76.8018V26H75.6286ZM76.2251 17.0909C75.9964 17.0909 75.7992 17.013 75.6335 16.8572C75.4711 16.7015 75.3899 16.5142 75.3899 16.2955C75.3899 16.0767 75.4711 15.8894 75.6335 15.7337C75.7992 15.5779 75.9964 15.5 76.2251 15.5C76.4538 15.5 76.6494 15.5779 76.8118 15.7337C76.9775 15.8894 77.0604 16.0767 77.0604 16.2955C77.0604 16.5142 76.9775 16.7015 76.8118 16.8572C76.6494 17.013 76.4538 17.0909 76.2251 17.0909ZM82.2718 18.3636V19.358H78.3145V18.3636H82.2718ZM79.4679 16.5341H80.6412V23.8125C80.6412 24.1439 80.6892 24.3925 80.7853 24.5582C80.8848 24.7206 81.0107 24.83 81.1632 24.8864C81.319 24.9394 81.483 24.9659 81.6554 24.9659C81.7846 24.9659 81.8907 24.9593 81.9735 24.946C82.0564 24.9295 82.1227 24.9162 82.1724 24.9062L82.411 25.9602C82.3315 25.9901 82.2205 26.0199 82.0779 26.0497C81.9354 26.0829 81.7548 26.0994 81.536 26.0994C81.2046 26.0994 80.8798 26.0282 80.5616 25.8857C80.2467 25.7431 79.9849 25.526 79.7761 25.2344C79.5706 24.9427 79.4679 24.5748 79.4679 24.1307V16.5341ZM84.7924 28.8636C84.5936 28.8636 84.4163 28.8471 84.2605 28.8139C84.1047 28.7841 83.997 28.7543 83.9373 28.7244L84.2356 27.6903C84.5207 27.7633 84.7725 27.7898 84.9913 27.7699C85.21 27.75 85.4039 27.6522 85.573 27.4766C85.7453 27.3042 85.9028 27.0241 86.0453 26.6364L86.264 26.0398L83.4402 18.3636H84.7129L86.8208 24.4489H86.9004L89.0083 18.3636H90.2811L87.0396 27.1136C86.8938 27.508 86.7131 27.8345 86.4977 28.093C86.2823 28.3549 86.032 28.5488 85.747 28.6747C85.4653 28.8007 85.1471 28.8636 84.7924 28.8636Z" fill="black"/>
<path d="M24.6648 11C22.9718 11 21.5992 12.4066 21.5992 14.0997C21.5992 15.7927 22.9717 17.1653 24.6648 17.1653C26.3579 17.1653 27.7304 15.7927 27.7304 14.0997C27.7304 12.4066 26.3579 11 24.6648 11Z" fill="#FF5069"/>
<path d="M26.9488 21.5422C25.6171 21.5422 25.1616 23.1313 25.1571 23.1473C25.1557 23.1522 25.1505 23.1544 25.149 23.1592C25.149 23.1591 25.1492 23.1591 25.1492 23.159C25.0833 23.3723 24.8902 23.52 24.6661 23.521C24.6656 23.521 24.6651 23.521 24.6641 23.521C24.4361 23.521 24.2355 23.3688 24.1726 23.1493C24.1541 23.0834 23.6996 21.5421 22.3804 21.5421C21.369 21.5421 20.6066 22.3884 20.6066 23.511C20.6066 24.8473 21.8116 26.1883 23.8084 27.8738C23.9788 28.0174 24.1541 28.1654 24.3339 28.3181C24.5243 28.4799 24.8043 28.4804 24.9949 28.3186C25.1745 28.1661 25.3495 28.0185 25.5193 27.8747C27.0385 26.5932 28.7226 24.9457 28.7226 23.511C28.7226 22.3884 27.9602 21.5422 26.9488 21.5422Z" fill="#FF5069"/>
<path d="M27.2697 17.2162C26.5647 17.8192 25.6654 18.187 24.664 18.187C23.6626 18.187 22.7633 17.8191 22.0582 17.2162C19.197 17.5023 17 19.9071 17 22.8195V23.5348C17 25.1902 17.6438 26.7434 18.8087 27.9083C18.8087 27.9185 18.8087 27.9185 18.819 27.9185C19.1357 28.2353 19.5751 28.4193 20.0248 28.4295C20.7719 28.4108 21.3762 27.8439 21.4758 27.1149C20.5233 26.1364 19.5841 24.8826 19.5841 23.511C19.5841 21.7656 20.9176 20.5202 22.375 20.5202C22.376 20.5202 22.3767 20.5204 22.3778 20.5204C22.3784 20.5204 22.3791 20.5202 22.3798 20.5202C23.3415 20.5202 24.145 21.0492 24.6645 21.823C25.1889 21.0418 25.9706 20.5202 26.9482 20.5202C26.9489 20.5202 26.9495 20.5204 26.9502 20.5204C26.9512 20.5204 26.952 20.5202 26.953 20.5202C28.5012 20.5202 29.7439 21.8482 29.7439 23.511C29.6958 23.6404 29.9512 24.9004 27.8509 27.1012C27.9447 27.8367 28.5515 28.4106 29.3033 28.4295C29.7529 28.4193 30.1923 28.2353 30.5091 27.9185C30.5193 27.9185 30.5193 27.9185 30.5193 27.9083C31.6842 26.7434 32.328 25.1902 32.328 23.5348V22.8195C32.328 19.9071 30.1309 17.5023 27.2697 17.2162Z" fill="#FF5069"/>
</svg>
