<svg width="106" height="40" viewBox="0 0 106 40" fill="none" xmlns="http://www.w3.org/2000/svg">
<rect width="106" height="40" rx="20" fill="white"/>
<path d="M44.233 26V15.8182H47.6733C48.4721 15.8182 49.125 15.9624 49.6321 16.2507C50.1425 16.5357 50.5204 16.9219 50.7656 17.4091C51.0109 17.8963 51.1335 18.4399 51.1335 19.0398C51.1335 19.6397 51.0109 20.1849 50.7656 20.6754C50.5237 21.166 50.1491 21.5571 49.642 21.8487C49.1349 22.1371 48.4853 22.2812 47.6932 22.2812H45.2273V21.1875H47.6534C48.2003 21.1875 48.6394 21.093 48.9709 20.9041C49.3023 20.7152 49.5426 20.46 49.6918 20.1385C49.8442 19.8137 49.9205 19.4474 49.9205 19.0398C49.9205 18.6321 49.8442 18.2675 49.6918 17.946C49.5426 17.6245 49.3007 17.3726 48.9659 17.1903C48.6312 17.0047 48.187 16.9119 47.6335 16.9119H45.4659V26H44.233ZM55.9808 26.1591C55.2914 26.1591 54.6866 25.995 54.1662 25.6669C53.6491 25.3388 53.2448 24.8797 52.9531 24.2898C52.6648 23.6998 52.5206 23.0104 52.5206 22.2216C52.5206 21.4261 52.6648 20.7318 52.9531 20.1385C53.2448 19.5452 53.6491 19.0845 54.1662 18.7564C54.6866 18.4283 55.2914 18.2642 55.9808 18.2642C56.6702 18.2642 57.2734 18.4283 57.7905 18.7564C58.3108 19.0845 58.7152 19.5452 59.0036 20.1385C59.2952 20.7318 59.4411 21.4261 59.4411 22.2216C59.4411 23.0104 59.2952 23.6998 59.0036 24.2898C58.7152 24.8797 58.3108 25.3388 57.7905 25.6669C57.2734 25.995 56.6702 26.1591 55.9808 26.1591ZM55.9808 25.1051C56.5045 25.1051 56.9354 24.9709 57.2734 24.7024C57.6115 24.4339 57.8617 24.081 58.0241 23.6435C58.1866 23.206 58.2678 22.732 58.2678 22.2216C58.2678 21.7112 58.1866 21.2356 58.0241 20.7947C57.8617 20.3539 57.6115 19.9976 57.2734 19.7259C56.9354 19.4541 56.5045 19.3182 55.9808 19.3182C55.4571 19.3182 55.0263 19.4541 54.6882 19.7259C54.3501 19.9976 54.0999 20.3539 53.9375 20.7947C53.7751 21.2356 53.6939 21.7112 53.6939 22.2216C53.6939 22.732 53.7751 23.206 53.9375 23.6435C54.0999 24.081 54.3501 24.4339 54.6882 24.7024C55.0263 24.9709 55.4571 25.1051 55.9808 25.1051ZM62.4054 15.8182V26H61.2321V15.8182H62.4054ZM64.5543 26V18.3636H65.7276V26H64.5543ZM65.1509 17.0909C64.9222 17.0909 64.725 17.013 64.5593 16.8572C64.3969 16.7015 64.3157 16.5142 64.3157 16.2955C64.3157 16.0767 64.3969 15.8894 64.5593 15.7337C64.725 15.5779 64.9222 15.5 65.1509 15.5C65.3796 15.5 65.5752 15.5779 65.7376 15.7337C65.9033 15.8894 65.9862 16.0767 65.9862 16.2955C65.9862 16.5142 65.9033 16.7015 65.7376 16.8572C65.5752 17.013 65.3796 17.0909 65.1509 17.0909ZM71.1976 18.3636V19.358H67.2402V18.3636H71.1976ZM68.3936 16.5341H69.5669V23.8125C69.5669 24.1439 69.615 24.3925 69.7111 24.5582C69.8105 24.7206 69.9365 24.83 70.089 24.8864C70.2447 24.9394 70.4088 24.9659 70.5811 24.9659C70.7104 24.9659 70.8165 24.9593 70.8993 24.946C70.9822 24.9295 71.0485 24.9162 71.0982 24.9062L71.3368 25.9602C71.2573 25.9901 71.1462 26.0199 71.0037 26.0497C70.8612 26.0829 70.6806 26.0994 70.4618 26.0994C70.1304 26.0994 69.8056 26.0282 69.4874 25.8857C69.1725 25.7431 68.9107 25.526 68.7019 25.2344C68.4964 24.9427 68.3936 24.5748 68.3936 24.1307V16.5341ZM72.9625 26V18.3636H74.1358V26H72.9625ZM73.5591 17.0909C73.3304 17.0909 73.1332 17.013 72.9675 16.8572C72.8051 16.7015 72.7239 16.5142 72.7239 16.2955C72.7239 16.0767 72.8051 15.8894 72.9675 15.7337C73.1332 15.5779 73.3304 15.5 73.5591 15.5C73.7878 15.5 73.9834 15.5779 74.1458 15.7337C74.3115 15.8894 74.3944 16.0767 74.3944 16.2955C74.3944 16.5142 74.3115 16.7015 74.1458 16.8572C73.9834 17.013 73.7878 17.0909 73.5591 17.0909ZM79.3871 26.1591C78.6712 26.1591 78.0547 25.9901 77.5376 25.652C77.0206 25.3139 76.6229 24.8482 76.3445 24.255C76.0661 23.6617 75.9268 22.9839 75.9268 22.2216C75.9268 21.446 76.0694 20.7616 76.3544 20.1683C76.6428 19.5717 77.0438 19.1061 77.5575 18.7713C78.0746 18.4332 78.6778 18.2642 79.3672 18.2642C79.9041 18.2642 80.388 18.3636 80.8189 18.5625C81.2498 18.7614 81.6027 19.0398 81.8778 19.3977C82.1529 19.7557 82.3236 20.1733 82.3899 20.6506H81.2166C81.1271 20.3026 80.9283 19.9943 80.62 19.7259C80.3151 19.4541 79.9041 19.3182 79.3871 19.3182C78.9297 19.3182 78.5286 19.4375 78.1839 19.6761C77.8426 19.9115 77.5758 20.2446 77.3835 20.6754C77.1946 21.103 77.1001 21.6051 77.1001 22.1818C77.1001 22.7718 77.1929 23.2855 77.3786 23.723C77.5675 24.1605 77.8326 24.5002 78.174 24.7422C78.5187 24.9841 78.9231 25.1051 79.3871 25.1051C79.692 25.1051 79.9688 25.0521 80.2173 24.946C80.4659 24.84 80.6764 24.6875 80.8487 24.4886C81.0211 24.2898 81.1437 24.0511 81.2166 23.7727H82.3899C82.3236 24.2235 82.1596 24.6295 81.8977 24.9908C81.6392 25.3487 81.2962 25.6338 80.8686 25.8459C80.4444 26.0547 79.9505 26.1591 79.3871 26.1591ZM89.5142 20.0739L88.4602 20.3722C88.3939 20.1965 88.2962 20.0258 88.1669 19.8601C88.041 19.6911 87.8686 19.5518 87.6499 19.4425C87.4311 19.3331 87.151 19.2784 86.8097 19.2784C86.3423 19.2784 85.9529 19.3861 85.6413 19.6016C85.3331 19.8137 85.179 20.0838 85.179 20.4119C85.179 20.7036 85.285 20.9339 85.4972 21.103C85.7093 21.272 86.0407 21.4129 86.4915 21.5256L87.625 21.804C88.3078 21.9697 88.8165 22.2232 89.1513 22.5646C89.486 22.9027 89.6534 23.3385 89.6534 23.8722C89.6534 24.3097 89.5275 24.7008 89.2756 25.0455C89.027 25.3902 88.679 25.6619 88.2315 25.8608C87.7841 26.0597 87.2637 26.1591 86.6705 26.1591C85.8916 26.1591 85.2469 25.9901 84.7365 25.652C84.2261 25.3139 83.9029 24.8201 83.767 24.1705L84.8807 23.892C84.9867 24.303 85.1873 24.6113 85.4822 24.8168C85.7805 25.0223 86.17 25.125 86.6506 25.125C87.1974 25.125 87.6316 25.009 87.9531 24.777C88.2779 24.5417 88.4403 24.2599 88.4403 23.9318C88.4403 23.6667 88.3475 23.4446 88.1619 23.2656C87.9763 23.0833 87.6913 22.9474 87.3068 22.858L86.0341 22.5597C85.3348 22.3939 84.821 22.1371 84.4929 21.7891C84.1681 21.4377 84.0057 20.9986 84.0057 20.4716C84.0057 20.0407 84.1267 19.6596 84.3686 19.3281C84.6139 18.9967 84.947 18.7365 85.3679 18.5476C85.7921 18.3587 86.2727 18.2642 86.8097 18.2642C87.5653 18.2642 88.1586 18.4299 88.5895 18.7614C89.0237 19.0928 89.3319 19.5303 89.5142 20.0739Z" fill="black"/>
<path d="M32.9071 20.4549L29.9428 24.1987C29.6504 24.5686 29.2538 24.7761 28.8401 24.7761H26.357V28H20.3726V26.4563C20.3726 25.945 20.0445 25.53 19.6396 25.53C19.2347 25.53 18.9061 25.945 18.9061 26.4563V28H17V26.431C17 23.3411 18.9824 20.8353 21.4288 20.8353H28.1941L30.7012 17.6682C31.3105 16.8982 32.2977 16.8988 32.907 17.6682C33.5158 18.4376 33.5158 19.6849 32.9071 20.4549Z" fill="#FF5069"/>
<path d="M24.4997 13H24.4922C22.6132 13.0041 21.0909 14.5291 21.0909 16.4094C21.0909 18.2891 22.6132 19.8141 24.4922 19.8182H24.4997C26.3827 19.8182 27.9091 18.2918 27.9091 16.4094C27.9092 14.5264 26.3828 13 24.4997 13Z" fill="#FF5069"/>
</svg>
