<svg width="113" height="40" viewBox="0 0 113 40" fill="none" xmlns="http://www.w3.org/2000/svg">
<rect width="113" height="40" rx="20" fill="white"/>
<path d="M52.4261 19H51.1932C51.1203 18.6454 50.9927 18.3338 50.8104 18.0653C50.6314 17.7969 50.4126 17.5715 50.1541 17.3892C49.8989 17.2036 49.6155 17.0644 49.304 16.9716C48.9924 16.8788 48.6676 16.8324 48.3295 16.8324C47.7131 16.8324 47.1546 16.9882 46.6541 17.2997C46.157 17.6113 45.7609 18.0703 45.4659 18.6768C45.1742 19.2834 45.0284 20.0275 45.0284 20.9091C45.0284 21.7907 45.1742 22.5348 45.4659 23.1413C45.7609 23.7479 46.157 24.2069 46.6541 24.5185C47.1546 24.83 47.7131 24.9858 48.3295 24.9858C48.6676 24.9858 48.9924 24.9394 49.304 24.8466C49.6155 24.7538 49.8989 24.6162 50.1541 24.4339C50.4126 24.2483 50.6314 24.0213 50.8104 23.7528C50.9927 23.4811 51.1203 23.1695 51.1932 22.8182H52.4261C52.3333 23.3385 52.1643 23.8042 51.919 24.2152C51.6738 24.6262 51.3688 24.9759 51.0043 25.2642C50.6397 25.5492 50.2304 25.7663 49.7763 25.9155C49.3255 26.0646 48.8433 26.1392 48.3295 26.1392C47.4612 26.1392 46.6889 25.9271 46.0128 25.5028C45.3366 25.0786 44.8047 24.4754 44.4169 23.6932C44.0291 22.911 43.8352 21.983 43.8352 20.9091C43.8352 19.8352 44.0291 18.9072 44.4169 18.125C44.8047 17.3428 45.3366 16.7396 46.0128 16.3153C46.6889 15.8911 47.4612 15.679 48.3295 15.679C48.8433 15.679 49.3255 15.7536 49.7763 15.9027C50.2304 16.0518 50.6397 16.2706 51.0043 16.5589C51.3688 16.844 51.6738 17.192 51.919 17.603C52.1643 18.0107 52.3333 18.4763 52.4261 19ZM57.3617 26.1591C56.6723 26.1591 56.0674 25.995 55.5471 25.6669C55.03 25.3388 54.6257 24.8797 54.334 24.2898C54.0456 23.6998 53.9015 23.0104 53.9015 22.2216C53.9015 21.4261 54.0456 20.7318 54.334 20.1385C54.6257 19.5452 55.03 19.0845 55.5471 18.7564C56.0674 18.4283 56.6723 18.2642 57.3617 18.2642C58.0511 18.2642 58.6543 18.4283 59.1713 18.7564C59.6917 19.0845 60.0961 19.5452 60.3844 20.1385C60.6761 20.7318 60.8219 21.4261 60.8219 22.2216C60.8219 23.0104 60.6761 23.6998 60.3844 24.2898C60.0961 24.8797 59.6917 25.3388 59.1713 25.6669C58.6543 25.995 58.0511 26.1591 57.3617 26.1591ZM57.3617 25.1051C57.8854 25.1051 58.3162 24.9709 58.6543 24.7024C58.9924 24.4339 59.2426 24.081 59.405 23.6435C59.5674 23.206 59.6486 22.732 59.6486 22.2216C59.6486 21.7112 59.5674 21.2356 59.405 20.7947C59.2426 20.3539 58.9924 19.9976 58.6543 19.7259C58.3162 19.4541 57.8854 19.3182 57.3617 19.3182C56.838 19.3182 56.4071 19.4541 56.0691 19.7259C55.731 19.9976 55.4808 20.3539 55.3184 20.7947C55.156 21.2356 55.0748 21.7112 55.0748 22.2216C55.0748 22.732 55.156 23.206 55.3184 23.6435C55.4808 24.081 55.731 24.4339 56.0691 24.7024C56.4071 24.9709 56.838 25.1051 57.3617 25.1051ZM65.7152 26.1591C65.0258 26.1591 64.4209 25.995 63.9006 25.6669C63.3835 25.3388 62.9792 24.8797 62.6875 24.2898C62.3991 23.6998 62.255 23.0104 62.255 22.2216C62.255 21.4261 62.3991 20.7318 62.6875 20.1385C62.9792 19.5452 63.3835 19.0845 63.9006 18.7564C64.4209 18.4283 65.0258 18.2642 65.7152 18.2642C66.4046 18.2642 67.0078 18.4283 67.5249 18.7564C68.0452 19.0845 68.4496 19.5452 68.7379 20.1385C69.0296 20.7318 69.1754 21.4261 69.1754 22.2216C69.1754 23.0104 69.0296 23.6998 68.7379 24.2898C68.4496 24.8797 68.0452 25.3388 67.5249 25.6669C67.0078 25.995 66.4046 26.1591 65.7152 26.1591ZM65.7152 25.1051C66.2389 25.1051 66.6697 24.9709 67.0078 24.7024C67.3459 24.4339 67.5961 24.081 67.7585 23.6435C67.9209 23.206 68.0021 22.732 68.0021 22.2216C68.0021 21.7112 67.9209 21.2356 67.7585 20.7947C67.5961 20.3539 67.3459 19.9976 67.0078 19.7259C66.6697 19.4541 66.2389 19.3182 65.7152 19.3182C65.1915 19.3182 64.7607 19.4541 64.4226 19.7259C64.0845 19.9976 63.8343 20.3539 63.6719 20.7947C63.5095 21.2356 63.4283 21.7112 63.4283 22.2216C63.4283 22.732 63.5095 23.206 63.6719 23.6435C63.8343 24.081 64.0845 24.4339 64.4226 24.7024C64.7607 24.9709 65.1915 25.1051 65.7152 25.1051ZM72.0602 23.2159L72.0403 21.7642H72.2789L75.6199 18.3636H77.0716L73.5119 21.9631H73.4125L72.0602 23.2159ZM70.9664 26V15.8182H72.1397V26H70.9664ZM75.8187 26L72.8358 22.2216L73.671 21.4062L77.3102 26H75.8187ZM78.5817 26V18.3636H79.755V26H78.5817ZM79.1783 17.0909C78.9496 17.0909 78.7524 17.013 78.5866 16.8572C78.4242 16.7015 78.343 16.5142 78.343 16.2955C78.343 16.0767 78.4242 15.8894 78.5866 15.7337C78.7524 15.5779 78.9496 15.5 79.1783 15.5C79.407 15.5 79.6025 15.5779 79.7649 15.7337C79.9306 15.8894 80.0135 16.0767 80.0135 16.2955C80.0135 16.5142 79.9306 16.7015 79.7649 16.8572C79.6025 17.013 79.407 17.0909 79.1783 17.0909ZM83.0772 21.4062V26H81.9039V18.3636H83.0375V19.5568H83.1369C83.3159 19.169 83.5877 18.8575 83.9522 18.6222C84.3168 18.3835 84.7875 18.2642 85.3642 18.2642C85.8812 18.2642 86.3336 18.3703 86.7214 18.5824C87.1092 18.7912 87.4108 19.1094 87.6262 19.5369C87.8417 19.9612 87.9494 20.4981 87.9494 21.1477V26H86.7761V21.2273C86.7761 20.6274 86.6203 20.16 86.3088 19.8253C85.9972 19.4872 85.5697 19.3182 85.0261 19.3182C84.6516 19.3182 84.3168 19.3994 84.0218 19.5618C83.7302 19.7242 83.4998 19.9612 83.3308 20.2727C83.1618 20.5843 83.0772 20.9621 83.0772 21.4062ZM93.1758 29.0227C92.609 29.0227 92.1218 28.9498 91.7141 28.804C91.3065 28.6615 90.9667 28.4725 90.695 28.2372C90.4265 28.0052 90.2127 27.7566 90.0536 27.4915L90.9883 26.8352C91.0943 26.9744 91.2286 27.1335 91.391 27.3125C91.5534 27.4948 91.7754 27.6522 92.0572 27.7848C92.3422 27.9207 92.7151 27.9886 93.1758 27.9886C93.7923 27.9886 94.301 27.8395 94.7021 27.5412C95.1031 27.2429 95.3036 26.7756 95.3036 26.1392V24.5881H95.2042C95.118 24.7273 94.9954 24.8996 94.8363 25.1051C94.6805 25.3073 94.4551 25.4879 94.1602 25.647C93.8685 25.8028 93.4741 25.8807 92.9769 25.8807C92.3604 25.8807 91.8069 25.7348 91.3164 25.4432C90.8292 25.1515 90.4431 24.7273 90.158 24.1705C89.8763 23.6136 89.7354 22.9375 89.7354 22.142C89.7354 21.3598 89.873 20.6787 90.1481 20.0987C90.4232 19.5154 90.806 19.0646 91.2965 18.7464C91.7871 18.425 92.3538 18.2642 92.9968 18.2642C93.494 18.2642 93.8884 18.3471 94.18 18.5128C94.475 18.6752 94.7004 18.8608 94.8562 19.0696C95.0153 19.2751 95.1379 19.4441 95.2241 19.5767H95.3434V18.3636H96.4769V26.2188C96.4769 26.875 96.3278 27.4086 96.0295 27.8196C95.7345 28.2339 95.3368 28.5372 94.8363 28.7294C94.3391 28.925 93.7856 29.0227 93.1758 29.0227ZM93.136 24.8267C93.6067 24.8267 94.0044 24.719 94.3292 24.5036C94.654 24.2881 94.9009 23.9782 95.07 23.5739C95.239 23.1695 95.3235 22.6856 95.3235 22.1222C95.3235 21.572 95.2406 21.0864 95.0749 20.6655C94.9092 20.2446 94.6639 19.9148 94.3391 19.6761C94.0143 19.4375 93.6133 19.3182 93.136 19.3182C92.6388 19.3182 92.2246 19.4441 91.8931 19.696C91.565 19.9479 91.3181 20.286 91.1523 20.7102C90.9899 21.1345 90.9087 21.6051 90.9087 22.1222C90.9087 22.6525 90.9916 23.1214 91.1573 23.5291C91.3263 23.9335 91.5749 24.2517 91.9031 24.4837C92.2345 24.7124 92.6455 24.8267 93.136 24.8267Z" fill="black"/>
<path d="M22.8502 20.3435C23.3788 20.9347 23.9018 21.5117 24.4134 22.0688C22.8843 23.7969 20.6616 26.2754 19.9453 26.8723C18.5356 28.0433 16.7449 26.4573 17.9614 24.8883C18.4673 24.2346 20.2694 22.5633 22.8502 20.3435Z" fill="#FF5069"/>
<path d="M32.6396 16.1681L32.6368 16.1709C32.6241 16.1892 32.6099 16.2063 32.5942 16.2221C29.3738 19.4396 29.4193 19.5078 28.7286 19.701C27.7821 19.9654 27.3899 19.485 26.8158 19.6925C26.2615 19.1866 25.6874 18.6664 25.1019 18.1435C25.4031 17.5182 24.8603 17.1288 25.1303 16.1368C25.3292 15.4433 25.3918 15.4916 28.6292 12.2571C28.6914 12.1812 28.7688 12.1192 28.8564 12.0751C28.9441 12.031 29.04 12.0057 29.138 12.0009C29.236 11.996 29.3339 12.0118 29.4254 12.0471C29.517 12.0824 29.6001 12.1365 29.6695 12.2058C29.7389 12.2752 29.793 12.3584 29.8283 12.4499C29.8636 12.5415 29.8793 12.6394 29.8745 12.7374C29.8697 12.8354 29.8444 12.9313 29.8002 13.0189C29.7561 13.1065 29.6941 13.184 29.6183 13.2462L27.6343 15.233C27.5993 15.2648 27.571 15.3035 27.5513 15.3466C27.5316 15.3897 27.5208 15.4363 27.5197 15.4837C27.5185 15.5311 27.527 15.5782 27.5446 15.6222C27.5622 15.6663 27.5886 15.7062 27.6221 15.7397C27.6556 15.7733 27.6956 15.7996 27.7396 15.8172C27.7836 15.8348 27.8307 15.8433 27.8781 15.8422C27.9255 15.841 27.9722 15.8303 28.0153 15.8106C28.0584 15.7909 28.097 15.7626 28.1289 15.7275L30.1157 13.7436C30.1779 13.6677 30.2554 13.6057 30.343 13.5615C30.4307 13.5174 30.5266 13.492 30.6246 13.4871C30.7226 13.4823 30.8206 13.4979 30.9122 13.5332C31.0038 13.5684 31.0871 13.6224 31.1566 13.6917C31.2261 13.761 31.2803 13.8441 31.3158 13.9356C31.3513 14.0271 31.3672 14.125 31.3626 14.223C31.358 14.3211 31.3329 14.4171 31.289 14.5048C31.2451 14.5926 31.1833 14.6702 31.1076 14.7327L29.1209 16.7195C29.0858 16.7513 29.0575 16.79 29.0378 16.8331C29.0181 16.8762 29.0073 16.9229 29.0062 16.9702C29.005 17.0176 29.0135 17.0648 29.0311 17.1088C29.0488 17.1528 29.0751 17.1927 29.1086 17.2263C29.1422 17.2598 29.1821 17.2861 29.2261 17.3038C29.2701 17.3214 29.3173 17.3299 29.3647 17.3287C29.412 17.3276 29.4587 17.3168 29.5018 17.2971C29.5449 17.2774 29.5836 17.2491 29.6154 17.214L31.6022 15.2301C31.6622 15.1564 31.7365 15.0956 31.8207 15.0515C31.9049 15.0075 31.9972 14.981 32.092 14.9737C32.1867 14.9665 32.282 14.9786 32.3719 15.0093C32.4619 15.04 32.5446 15.0888 32.6151 15.1525C32.6856 15.2162 32.7424 15.2937 32.782 15.3801C32.8216 15.4664 32.8432 15.56 32.8455 15.655C32.8478 15.75 32.8307 15.8445 32.7953 15.9327C32.76 16.0209 32.707 16.101 32.6396 16.1681Z" fill="#FF5069"/>
<path d="M31.4992 26.7699C31.233 27.0233 30.8773 27.1611 30.5098 27.1531C30.1424 27.1451 29.793 26.992 29.538 26.7273C26.241 23.2909 23.069 19.7381 23.069 19.7381C22.9168 19.5658 22.7258 19.4322 22.5118 19.3482C22.2979 19.2642 22.067 19.2322 21.8382 19.2549C20.7383 19.3601 19.4308 18.8598 18.3991 17.8281C16.833 16.2591 16.4919 14.0592 17.6402 12.9109C18.7885 11.7626 20.9912 12.1037 22.5573 13.6698C23.5891 14.7015 24.0893 16.009 23.9842 17.109C23.9624 17.3376 23.9948 17.5682 24.0788 17.782C24.1627 17.9959 24.2958 18.1869 24.4674 18.3397C26.5926 20.2286 29.6623 23.0839 31.4566 24.8087C31.5884 24.9346 31.694 25.0852 31.7675 25.252C31.841 25.4187 31.8808 25.5983 31.8848 25.7805C31.8887 25.9627 31.8567 26.1438 31.7906 26.3136C31.7244 26.4834 31.6254 26.6385 31.4992 26.7699Z" fill="#FF5069"/>
</svg>
