<svg width="110" height="40" viewBox="0 0 110 40" fill="none" xmlns="http://www.w3.org/2000/svg">
<rect width="110" height="40" rx="20" fill="white"/>
<path d="M44.233 26V15.8182H50.3381V16.9119H45.4659V20.3523H49.8807V21.446H45.4659V26H44.233ZM54.5378 26.179C54.0539 26.179 53.6148 26.0878 53.2203 25.9055C52.8259 25.7199 52.5127 25.4531 52.2807 25.1051C52.0487 24.7538 51.9327 24.3295 51.9327 23.8324C51.9327 23.3949 52.0189 23.0402 52.1912 22.7685C52.3636 22.4934 52.5939 22.2779 52.8823 22.1222C53.1706 21.9664 53.4888 21.8504 53.8368 21.7741C54.1882 21.6946 54.5411 21.6316 54.8958 21.5852C55.3598 21.5256 55.736 21.4808 56.0243 21.451C56.316 21.4179 56.5281 21.3632 56.6607 21.2869C56.7966 21.2107 56.8645 21.0781 56.8645 20.8892V20.8494C56.8645 20.3589 56.7303 19.9777 56.4618 19.706C56.1967 19.4342 55.794 19.2983 55.2537 19.2983C54.6936 19.2983 54.2544 19.4209 53.9363 19.6662C53.6181 19.9115 53.3944 20.1733 53.2651 20.4517L52.1515 20.054C52.3503 19.59 52.6155 19.2287 52.9469 18.9702C53.2817 18.7083 53.6462 18.526 54.0407 18.4233C54.4384 18.3172 54.8295 18.2642 55.214 18.2642C55.4592 18.2642 55.7409 18.294 56.0591 18.3537C56.3806 18.41 56.6905 18.5277 56.9888 18.7067C57.2904 18.8857 57.5407 19.1558 57.7395 19.517C57.9384 19.8783 58.0378 20.3622 58.0378 20.9688V26H56.8645V24.9659H56.8049C56.7253 25.1316 56.5927 25.3089 56.4071 25.4979C56.2215 25.6868 55.9746 25.8475 55.6664 25.9801C55.3581 26.1127 54.9819 26.179 54.5378 26.179ZM54.7168 25.125C55.1808 25.125 55.5719 25.0339 55.8901 24.8516C56.2116 24.6693 56.4535 24.4339 56.6159 24.1456C56.7817 23.8572 56.8645 23.554 56.8645 23.2358V22.1619C56.8148 22.2216 56.7054 22.2763 56.5364 22.326C56.3707 22.3724 56.1784 22.4138 55.9597 22.4503C55.7443 22.4834 55.5338 22.5133 55.3283 22.5398C55.1261 22.563 54.9621 22.5829 54.8361 22.5994C54.5312 22.6392 54.2462 22.7038 53.981 22.7933C53.7192 22.8795 53.507 23.0104 53.3446 23.1861C53.1855 23.3584 53.106 23.5937 53.106 23.892C53.106 24.2997 53.2568 24.608 53.5584 24.8168C53.8633 25.0223 54.2495 25.125 54.7168 25.125ZM65.5884 20.0739L64.5344 20.3722C64.4682 20.1965 64.3704 20.0258 64.2411 19.8601C64.1152 19.6911 63.9428 19.5518 63.7241 19.4425C63.5053 19.3331 63.2253 19.2784 62.8839 19.2784C62.4165 19.2784 62.0271 19.3861 61.7156 19.6016C61.4073 19.8137 61.2532 20.0838 61.2532 20.4119C61.2532 20.7036 61.3593 20.9339 61.5714 21.103C61.7835 21.272 62.1149 21.4129 62.5657 21.5256L63.6992 21.804C64.382 21.9697 64.8907 22.2232 65.2255 22.5646C65.5603 22.9027 65.7276 23.3385 65.7276 23.8722C65.7276 24.3097 65.6017 24.7008 65.3498 25.0455C65.1012 25.3902 64.7532 25.6619 64.3058 25.8608C63.8583 26.0597 63.3379 26.1591 62.7447 26.1591C61.9658 26.1591 61.3211 25.9901 60.8107 25.652C60.3003 25.3139 59.9772 24.8201 59.8413 24.1705L60.9549 23.892C61.061 24.303 61.2615 24.6113 61.5565 24.8168C61.8548 25.0223 62.2442 25.125 62.7248 25.125C63.2717 25.125 63.7058 25.009 64.0273 24.777C64.3522 24.5417 64.5146 24.2599 64.5146 23.9318C64.5146 23.6667 64.4218 23.4446 64.2362 23.2656C64.0505 23.0833 63.7655 22.9474 63.381 22.858L62.1083 22.5597C61.409 22.3939 60.8952 22.1371 60.5671 21.7891C60.2423 21.4377 60.0799 20.9986 60.0799 20.4716C60.0799 20.0407 60.2009 19.6596 60.4428 19.3281C60.6881 18.9967 61.0212 18.7365 61.4421 18.5476C61.8664 18.3587 62.3469 18.2642 62.8839 18.2642C63.6396 18.2642 64.2328 18.4299 64.6637 18.7614C65.0979 19.0928 65.4061 19.5303 65.5884 20.0739ZM68.6671 21.4062V26H67.4938V15.8182H68.6671V19.5568H68.7665C68.9455 19.1624 69.214 18.8492 69.5719 18.6172C69.9332 18.3819 70.4138 18.2642 71.0137 18.2642C71.534 18.2642 71.9898 18.3686 72.3809 18.5774C72.772 18.7829 73.0752 19.0994 73.2907 19.527C73.5094 19.9512 73.6188 20.4915 73.6188 21.1477V26H72.4455V21.2273C72.4455 20.6207 72.2881 20.1518 71.9732 19.8203C71.6616 19.4856 71.2291 19.3182 70.6756 19.3182C70.2911 19.3182 69.9464 19.3994 69.6415 19.5618C69.3399 19.7242 69.1013 19.9612 68.9256 20.2727C68.7533 20.5843 68.6671 20.9621 68.6671 21.4062ZM75.7653 26V18.3636H76.9386V26H75.7653ZM76.3619 17.0909C76.1332 17.0909 75.936 17.013 75.7702 16.8572C75.6078 16.7015 75.5266 16.5142 75.5266 16.2955C75.5266 16.0767 75.6078 15.8894 75.7702 15.7337C75.936 15.5779 76.1332 15.5 76.3619 15.5C76.5906 15.5 76.7861 15.5779 76.9485 15.7337C77.1142 15.8894 77.1971 16.0767 77.1971 16.2955C77.1971 16.5142 77.1142 16.7015 76.9485 16.8572C76.7861 17.013 76.5906 17.0909 76.3619 17.0909ZM82.1898 26.1591C81.5004 26.1591 80.8955 25.995 80.3752 25.6669C79.8581 25.3388 79.4538 24.8797 79.1621 24.2898C78.8738 23.6998 78.7296 23.0104 78.7296 22.2216C78.7296 21.4261 78.8738 20.7318 79.1621 20.1385C79.4538 19.5452 79.8581 19.0845 80.3752 18.7564C80.8955 18.4283 81.5004 18.2642 82.1898 18.2642C82.8792 18.2642 83.4824 18.4283 83.9995 18.7564C84.5198 19.0845 84.9242 19.5452 85.2125 20.1385C85.5042 20.7318 85.65 21.4261 85.65 22.2216C85.65 23.0104 85.5042 23.6998 85.2125 24.2898C84.9242 24.8797 84.5198 25.3388 83.9995 25.6669C83.4824 25.995 82.8792 26.1591 82.1898 26.1591ZM82.1898 25.1051C82.7135 25.1051 83.1444 24.9709 83.4824 24.7024C83.8205 24.4339 84.0707 24.081 84.2331 23.6435C84.3955 23.206 84.4767 22.732 84.4767 22.2216C84.4767 21.7112 84.3955 21.2356 84.2331 20.7947C84.0707 20.3539 83.8205 19.9976 83.4824 19.7259C83.1444 19.4541 82.7135 19.3182 82.1898 19.3182C81.6661 19.3182 81.2353 19.4541 80.8972 19.7259C80.5591 19.9976 80.3089 20.3539 80.1465 20.7947C79.9841 21.2356 79.9029 21.7112 79.9029 22.2216C79.9029 22.732 79.9841 23.206 80.1465 23.6435C80.3089 24.081 80.5591 24.4339 80.8972 24.7024C81.2353 24.9709 81.6661 25.1051 82.1898 25.1051ZM88.6143 21.4062V26H87.4411V18.3636H88.5746V19.5568H88.674C88.853 19.169 89.1248 18.8575 89.4893 18.6222C89.8539 18.3835 90.3246 18.2642 90.9013 18.2642C91.4183 18.2642 91.8707 18.3703 92.2585 18.5824C92.6463 18.7912 92.9479 19.1094 93.1634 19.5369C93.3788 19.9612 93.4865 20.4981 93.4865 21.1477V26H92.3132V21.2273C92.3132 20.6274 92.1574 20.16 91.8459 19.8253C91.5343 19.4872 91.1068 19.3182 90.5632 19.3182C90.1887 19.3182 89.8539 19.3994 89.5589 19.5618C89.2673 19.7242 89.0369 19.9612 88.8679 20.2727C88.6989 20.5843 88.6143 20.9621 88.6143 21.4062Z" fill="black"/>
<path fill-rule="evenodd" clip-rule="evenodd" d="M31.7501 27H18.2504C17.0069 27 16 25.9563 16 24.6666C16 23.3768 18.2746 22.3325 18.2504 22.3325L23.8752 18.4445V17.6651C23.8752 17.0219 24.3785 16.4995 25.0013 16.4995C25.6221 16.4995 26.1252 15.9771 26.1252 15.3339C26.1252 14.6879 25.6221 14.1655 25.0013 14.1655C24.3785 14.1655 23.8752 14.6879 23.8752 15.3339H22.7503C22.7503 14.0442 23.7577 13 25.0013 13C26.2417 13 27.2492 14.0442 27.2492 15.3339C27.2492 16.2175 26.7668 16.977 26.0682 17.3735C26.0923 17.4697 26.1252 17.5614 26.1252 17.6651V18.4422L31.7501 22.3326C31.7282 22.3326 34 23.3769 34 24.6666C34 25.9564 32.9938 27 31.7501 27ZM30.0626 23.5009L25.0013 19.9991L19.9379 23.5009C19.9379 23.5009 19.3744 23.7608 19.3744 24.0833C19.3744 24.4045 19.6281 24.6666 19.9379 24.6666H30.0626C30.3725 24.6666 30.6251 24.4045 30.6251 24.0833C30.6251 23.7608 30.0626 23.5009 30.0626 23.5009Z" fill="#FF5069"/>
</svg>
