<svg width="112" height="40" viewBox="0 0 112 40" fill="none" xmlns="http://www.w3.org/2000/svg">
<rect width="112" height="40" rx="20" fill="white"/>
<path d="M51.1932 19C51.0838 18.6652 50.9396 18.3653 50.7607 18.1001C50.585 17.8317 50.3745 17.603 50.1293 17.4141C49.8873 17.2251 49.6122 17.081 49.304 16.9815C48.9957 16.8821 48.6577 16.8324 48.2898 16.8324C47.6866 16.8324 47.138 16.9882 46.6442 17.2997C46.1503 17.6113 45.7576 18.0703 45.4659 18.6768C45.1742 19.2834 45.0284 20.0275 45.0284 20.9091C45.0284 21.7907 45.1759 22.5348 45.4709 23.1413C45.7659 23.7479 46.1652 24.2069 46.669 24.5185C47.1728 24.83 47.7396 24.9858 48.3693 24.9858C48.9527 24.9858 49.4664 24.8615 49.9105 24.6129C50.358 24.361 50.706 24.0064 50.9545 23.549C51.2064 23.0883 51.3324 22.5464 51.3324 21.9233L51.7102 22.0028H48.6477V20.9091H52.5256V22.0028C52.5256 22.8414 52.3466 23.5705 51.9886 24.1903C51.634 24.8101 51.1435 25.2907 50.517 25.6321C49.8939 25.9702 49.178 26.1392 48.3693 26.1392C47.4678 26.1392 46.6757 25.9271 45.9929 25.5028C45.3134 25.0786 44.7831 24.4754 44.402 23.6932C44.0241 22.911 43.8352 21.983 43.8352 20.9091C43.8352 20.1037 43.9429 19.3795 44.1584 18.7365C44.3771 18.0902 44.6854 17.54 45.0831 17.0859C45.4808 16.6319 45.9515 16.2839 46.495 16.0419C47.0386 15.8 47.6368 15.679 48.2898 15.679C48.8267 15.679 49.3272 15.7602 49.7912 15.9226C50.2585 16.0817 50.6745 16.3087 51.0391 16.6037C51.407 16.8954 51.7135 17.245 51.9588 17.6527C52.2041 18.0571 52.3731 18.5062 52.4659 19H51.1932ZM56.7253 26.179C56.2414 26.179 55.8023 26.0878 55.4078 25.9055C55.0134 25.7199 54.7002 25.4531 54.4682 25.1051C54.2362 24.7538 54.1202 24.3295 54.1202 23.8324C54.1202 23.3949 54.2064 23.0402 54.3787 22.7685C54.5511 22.4934 54.7814 22.2779 55.0698 22.1222C55.3581 21.9664 55.6763 21.8504 56.0243 21.7741C56.3757 21.6946 56.7286 21.6316 57.0833 21.5852C57.5473 21.5256 57.9235 21.4808 58.2118 21.451C58.5035 21.4179 58.7156 21.3632 58.8482 21.2869C58.9841 21.2107 59.052 21.0781 59.052 20.8892V20.8494C59.052 20.3589 58.9178 19.9777 58.6493 19.706C58.3842 19.4342 57.9815 19.2983 57.4412 19.2983C56.8811 19.2983 56.4419 19.4209 56.1238 19.6662C55.8056 19.9115 55.5819 20.1733 55.4526 20.4517L54.339 20.054C54.5378 19.59 54.803 19.2287 55.1344 18.9702C55.4692 18.7083 55.8337 18.526 56.2282 18.4233C56.6259 18.3172 57.017 18.2642 57.4015 18.2642C57.6467 18.2642 57.9284 18.294 58.2466 18.3537C58.5681 18.41 58.878 18.5277 59.1763 18.7067C59.4779 18.8857 59.7282 19.1558 59.927 19.517C60.1259 19.8783 60.2253 20.3622 60.2253 20.9688V26H59.052V24.9659H58.9924C58.9128 25.1316 58.7802 25.3089 58.5946 25.4979C58.409 25.6868 58.1621 25.8475 57.8539 25.9801C57.5456 26.1127 57.1694 26.179 56.7253 26.179ZM56.9043 25.125C57.3683 25.125 57.7594 25.0339 58.0776 24.8516C58.3991 24.6693 58.641 24.4339 58.8034 24.1456C58.9692 23.8572 59.052 23.554 59.052 23.2358V22.1619C59.0023 22.2216 58.8929 22.2763 58.7239 22.326C58.5582 22.3724 58.3659 22.4138 58.1472 22.4503C57.9318 22.4834 57.7213 22.5133 57.5158 22.5398C57.3136 22.563 57.1496 22.5829 57.0236 22.5994C56.7187 22.6392 56.4337 22.7038 56.1685 22.7933C55.9067 22.8795 55.6945 23.0104 55.5321 23.1861C55.373 23.3584 55.2935 23.5937 55.2935 23.892C55.2935 24.2997 55.4443 24.608 55.7459 24.8168C56.0508 25.0223 56.437 25.125 56.9043 25.125ZM62.3668 26V18.3636H63.5004V19.5568H63.5998C63.7589 19.1491 64.0157 18.8326 64.3704 18.6072C64.725 18.3786 65.1509 18.2642 65.6481 18.2642C66.1519 18.2642 66.5711 18.3786 66.9059 18.6072C67.244 18.8326 67.5075 19.1491 67.6964 19.5568H67.7759C67.9715 19.1624 68.2648 18.8492 68.6559 18.6172C69.047 18.3819 69.516 18.2642 70.0629 18.2642C70.7456 18.2642 71.3041 18.478 71.7383 18.9055C72.1725 19.3298 72.3896 19.991 72.3896 20.8892V26H71.2163V20.8892C71.2163 20.3258 71.0621 19.9231 70.7539 19.6811C70.4457 19.4392 70.0827 19.3182 69.6651 19.3182C69.1282 19.3182 68.7122 19.4806 68.4173 19.8054C68.1223 20.1269 67.9748 20.5346 67.9748 21.0284V26H66.7816V20.7699C66.7816 20.3357 66.6407 19.986 66.359 19.7209C66.0773 19.4524 65.7144 19.3182 65.2702 19.3182C64.9653 19.3182 64.6803 19.3994 64.4151 19.5618C64.1533 19.7242 63.9412 19.9496 63.7788 20.2379C63.6197 20.523 63.5401 20.8527 63.5401 21.2273V26H62.3668ZM74.5348 26V18.3636H75.7081V26H74.5348ZM75.1314 17.0909C74.9027 17.0909 74.7055 17.013 74.5398 16.8572C74.3774 16.7015 74.2962 16.5142 74.2962 16.2955C74.2962 16.0767 74.3774 15.8894 74.5398 15.7337C74.7055 15.5779 74.9027 15.5 75.1314 15.5C75.3601 15.5 75.5556 15.5779 75.718 15.7337C75.8838 15.8894 75.9666 16.0767 75.9666 16.2955C75.9666 16.5142 75.8838 16.7015 75.718 16.8572C75.5556 17.013 75.3601 17.0909 75.1314 17.0909ZM79.0304 21.4062V26H77.8571V18.3636H78.9906V19.5568H79.09C79.269 19.169 79.5408 18.8575 79.9054 18.6222C80.2699 18.3835 80.7406 18.2642 81.3173 18.2642C81.8343 18.2642 82.2868 18.3703 82.6745 18.5824C83.0623 18.7912 83.3639 19.1094 83.5794 19.5369C83.7948 19.9612 83.9025 20.4981 83.9025 21.1477V26H82.7292V21.2273C82.7292 20.6274 82.5734 20.16 82.2619 19.8253C81.9503 19.4872 81.5228 19.3182 80.9792 19.3182C80.6047 19.3182 80.2699 19.3994 79.975 19.5618C79.6833 19.7242 79.4529 19.9612 79.2839 20.2727C79.1149 20.5843 79.0304 20.9621 79.0304 21.4062ZM89.1289 29.0227C88.5621 29.0227 88.0749 28.9498 87.6673 28.804C87.2596 28.6615 86.9199 28.4725 86.6481 28.2372C86.3796 28.0052 86.1658 27.7566 86.0067 27.4915L86.9414 26.8352C87.0475 26.9744 87.1817 27.1335 87.3441 27.3125C87.5065 27.4948 87.7286 27.6522 88.0103 27.7848C88.2953 27.9207 88.6682 27.9886 89.1289 27.9886C89.7454 27.9886 90.2541 27.8395 90.6552 27.5412C91.0562 27.2429 91.2567 26.7756 91.2567 26.1392V24.5881H91.1573C91.0711 24.7273 90.9485 24.8996 90.7894 25.1051C90.6336 25.3073 90.4083 25.4879 90.1133 25.647C89.8216 25.8028 89.4272 25.8807 88.93 25.8807C88.3136 25.8807 87.7601 25.7348 87.2695 25.4432C86.7823 25.1515 86.3962 24.7273 86.1112 24.1705C85.8294 23.6136 85.6886 22.9375 85.6886 22.142C85.6886 21.3598 85.8261 20.6787 86.1012 20.0987C86.3763 19.5154 86.7591 19.0646 87.2496 18.7464C87.7402 18.425 88.3069 18.2642 88.9499 18.2642C89.4471 18.2642 89.8415 18.3471 90.1332 18.5128C90.4281 18.6752 90.6535 18.8608 90.8093 19.0696C90.9684 19.2751 91.091 19.4441 91.1772 19.5767H91.2965V18.3636H92.43V26.2188C92.43 26.875 92.2809 27.4086 91.9826 27.8196C91.6876 28.2339 91.2899 28.5372 90.7894 28.7294C90.2923 28.925 89.7388 29.0227 89.1289 29.0227ZM89.0891 24.8267C89.5598 24.8267 89.9575 24.719 90.2823 24.5036C90.6071 24.2881 90.854 23.9782 91.0231 23.5739C91.1921 23.1695 91.2766 22.6856 91.2766 22.1222C91.2766 21.572 91.1938 21.0864 91.0281 20.6655C90.8623 20.2446 90.6171 19.9148 90.2923 19.6761C89.9674 19.4375 89.5664 19.3182 89.0891 19.3182C88.592 19.3182 88.1777 19.4441 87.8462 19.696C87.5181 19.9479 87.2712 20.286 87.1055 20.7102C86.9431 21.1345 86.8619 21.6051 86.8619 22.1222C86.8619 22.6525 86.9447 23.1214 87.1104 23.5291C87.2795 23.9335 87.5281 24.2517 87.8562 24.4837C88.1876 24.7124 88.5986 24.8267 89.0891 24.8267Z" fill="black"/>
<path d="M32.4083 16.1108C30.0283 12.2005 26.443 14.921 26.443 14.921C26.2104 15.0967 25.7817 15.2412 25.4904 15.2419L24.53 15.2425C24.2387 15.2429 23.8099 15.0984 23.5777 14.9226C23.5777 14.9226 19.9921 12.2016 17.6117 16.1118C15.232 20.0207 16.191 24.2778 16.191 24.2778C16.359 25.3201 16.9128 26.0157 17.9578 25.9283C18.9998 25.8413 21.2615 23.1212 21.2615 23.1212C21.4484 22.8971 21.8398 22.7139 22.1305 22.7139L27.8879 22.7129C28.1789 22.7129 28.57 22.8961 28.7565 23.1202C28.7565 23.1202 31.0186 25.8403 32.0622 25.9273C33.1059 26.0147 33.661 25.3184 33.828 24.2768C33.828 24.2768 34.7884 20.0204 32.4083 16.1108ZM22.8462 19.2936H21.6117V20.4834C21.6117 20.4834 21.3503 20.683 20.9457 20.678C20.5418 20.6719 20.359 20.4602 20.359 20.4602V19.2939H19.193C19.193 19.2939 19.0475 19.1447 19.0085 18.7519C18.9702 18.3591 19.1695 18.0416 19.1695 18.0416H20.4044V16.807C20.4044 16.807 20.6584 16.671 21.0236 16.6814C21.3892 16.6928 21.657 16.8302 21.657 16.8302L21.652 18.0412H22.818C22.818 18.0412 23.0216 18.3027 23.0384 18.6185C23.0552 18.9347 22.8462 19.2936 22.8462 19.2936ZM28.5088 20.6498C27.9682 20.6498 27.5323 20.2126 27.5323 19.6726C27.5323 19.1316 27.9682 18.6955 28.5088 18.6955C29.0471 18.6955 29.4863 19.1316 29.4863 19.6726C29.4863 20.2129 29.0471 20.6498 28.5088 20.6498ZM28.5088 17.9613C27.9682 17.9613 27.5323 17.5244 27.5323 16.9845C27.5323 16.4435 27.9682 16.0073 28.5088 16.0073C29.0471 16.0073 29.4863 16.4435 29.4863 16.9845C29.4863 17.5248 29.0471 17.9613 28.5088 17.9613ZM30.9423 19.4045C30.4016 19.4045 29.9658 18.9676 29.9658 18.4273C29.9658 17.8867 30.4016 17.4502 30.9423 17.4502C31.4806 17.4502 31.9198 17.8867 31.9198 18.4273C31.9198 18.9676 31.4806 19.4045 30.9423 19.4045Z" fill="#FF5069"/>
</svg>
